<?xml version="1.0" standalone="no"?>
<!DOCTYPE svg PUBLIC "-//W3C//DTD SVG 20010904//EN"
 "http://www.w3.org/TR/2001/REC-SVG-20010904/DTD/svg10.dtd">
<svg version="1.0" xmlns="http://www.w3.org/2000/svg"
 width="1024.000000pt" height="977.000000pt" viewBox="0 0 1024.000000 977.000000"
 preserveAspectRatio="xMidYMid meet">

<g transform="translate(0.000000,977.000000) scale(0.100000,-0.100000)"
fill="#000000" stroke="none">
<path d="M5150 9746 c0 -8 -11 -17 -24 -20 -24 -6 -43 -47 -30 -67 3 -6 1 -21
-6 -34 -13 -25 -6 -75 10 -75 6 0 10 15 10 34 0 18 9 45 20 59 11 14 20 30 20
35 0 5 7 15 15 22 8 7 15 21 15 31 0 11 7 19 15 19 8 0 15 -5 15 -11 0 -5 5
-7 10 -4 19 12 -1 25 -36 25 -22 0 -34 -5 -34 -14z"/>
<path d="M5056 9735 c-3 -9 1 -18 10 -22 19 -7 26 0 18 21 -8 20 -20 21 -28 1z"/>
<path d="M4943 9733 c-13 -2 -23 -8 -23 -13 0 -20 13 -40 26 -40 17 0 17 0 0
-36 -8 -16 -12 -40 -11 -54 2 -14 4 -31 4 -37 1 -18 21 -16 21 2 0 7 8 18 17
24 17 9 16 11 -1 30 -11 12 -16 24 -12 28 4 4 12 1 17 -7 9 -12 10 -11 5 3
-15 46 -17 65 -7 71 15 10 14 36 -1 35 -7 -1 -23 -4 -35 -6z"/>
<path d="M4821 9714 c-7 -9 -16 -12 -20 -7 -9 13 -67 8 -63 -6 3 -14 -4 -14
-26 0 -15 10 -24 7 -46 -12 -14 -13 -24 -29 -22 -35 3 -7 -2 -18 -10 -24 -16
-14 -19 -56 -4 -65 6 -4 17 -2 24 4 11 9 14 8 12 -5 -2 -25 58 -39 106 -24 21
6 38 15 38 20 0 6 7 10 15 10 8 0 15 -7 15 -15 0 -9 9 -15 25 -15 29 0 32 8 8
26 -15 11 -16 16 -5 33 24 40 5 70 -26 39 -9 -9 -13 -7 -18 5 -8 21 -24 22
-24 2 0 -9 -6 -18 -14 -21 -8 -3 -12 -13 -8 -26 5 -19 2 -21 -28 -14 -19 3
-36 9 -39 12 -10 9 16 39 37 42 15 2 19 8 15 20 -3 9 -3 14 2 10 4 -4 14 -3
22 3 7 6 13 8 13 3 0 -4 11 3 25 16 25 23 32 40 18 40 -5 -1 -14 -8 -22 -16z
m-121 -82 c0 -10 -22 -32 -32 -32 -13 0 -9 28 5 33 19 8 27 8 27 -1z m30 -66
c0 -3 -4 -8 -10 -11 -5 -3 -10 -1 -10 4 0 6 5 11 10 11 6 0 10 -2 10 -4z"/>
<path d="M4586 9701 c-4 -5 -2 -12 3 -15 5 -4 12 -2 15 3 4 5 2 12 -3 15 -5 4
-12 2 -15 -3z"/>
<path d="M4494 9683 l-52 -4 -6 -49 c-4 -27 -11 -52 -16 -55 -5 -3 -7 -12 -4
-20 3 -8 -4 -20 -15 -27 -23 -14 -26 -29 -10 -45 17 -17 59 8 60 37 l1 25 7
-25 c8 -30 45 -39 55 -14 4 10 2 20 -4 24 -17 10 -3 63 21 83 l22 18 -21 6
c-23 6 -28 18 -13 27 5 4 11 1 13 -5 5 -14 38 0 38 17 0 8 -6 13 -12 12 -7 -1
-36 -3 -64 -5z m-20 -35 c-8 -27 -12 -33 -19 -27 -7 8 7 49 17 49 5 0 6 -10 2
-22z m-1 -83 c-5 -13 -23 -22 -23 -11 0 15 14 35 21 31 4 -3 6 -12 2 -20z"/>
<path d="M5048 9649 c-10 -16 -15 -36 -12 -44 4 -9 0 -15 -7 -15 -11 0 -11 -2
0 -9 8 -5 21 -7 28 -4 9 4 11 8 4 12 -6 4 -7 20 -1 46 5 22 8 40 7 42 -1 1
-10 -12 -19 -28z"/>
<path d="M4275 9640 c3 -5 8 -10 11 -10 2 0 4 5 4 10 0 6 -5 10 -11 10 -5 0
-7 -4 -4 -10z"/>
<path d="M4210 9630 c0 -5 5 -10 11 -10 5 0 7 5 4 10 -3 6 -8 10 -11 10 -2 0
-4 -4 -4 -10z"/>
<path d="M5186 9614 c6 -23 4 -25 -14 -20 -15 5 -24 1 -32 -14 -15 -28 -5 -38
21 -22 11 7 24 10 29 7 6 -3 7 0 4 8 -3 8 2 17 10 20 22 8 20 20 -4 35 -19 12
-20 11 -14 -14z"/>
<path d="M4205 9599 c-10 -15 3 -25 16 -12 7 7 7 13 1 17 -6 3 -14 1 -17 -5z"/>
<path d="M4310 9590 c-8 -14 -8 -26 -2 -32 6 -6 12 0 16 17 9 35 1 43 -14 15z"/>
<path d="M4540 9590 c-9 -6 -10 -10 -3 -10 6 0 15 5 18 10 8 12 4 12 -15 0z"/>
<path d="M6400 9580 c0 -15 5 -31 12 -38 9 -9 9 -18 0 -37 -16 -34 -15 -35 8
-35 21 0 29 23 28 78 -1 30 -18 48 -18 20 -1 -7 -7 -2 -15 12 l-14 25 -1 -25z"/>
<path d="M4340 9580 c0 -5 5 -10 10 -10 6 0 10 5 10 10 0 6 -4 10 -10 10 -5 0
-10 -4 -10 -10z"/>
<path d="M6506 9558 c-3 -13 -6 -26 -6 -30 0 -14 27 -9 40 7 10 12 10 18 0 30
-17 21 -27 19 -34 -7z"/>
<path d="M4265 9550 c-3 -5 -1 -10 4 -10 6 0 11 5 11 10 0 6 -2 10 -4 10 -3 0
-8 -4 -11 -10z"/>
<path d="M5065 9550 c-3 -5 -1 -10 4 -10 6 0 11 5 11 10 0 6 -2 10 -4 10 -3 0
-8 -4 -11 -10z"/>
<path d="M4550 9540 c22 -6 23 -8 8 -15 -25 -10 -22 -35 3 -35 16 0 19 4 14
20 -4 12 -2 20 5 20 6 0 8 5 5 10 -3 6 -18 10 -33 9 l-27 -1 25 -8z"/>
<path d="M4610 9540 c0 -5 5 -10 10 -10 6 0 10 5 10 10 0 6 -4 10 -10 10 -5 0
-10 -4 -10 -10z"/>
<path d="M3858 9533 c7 -3 16 -2 19 1 4 3 -2 6 -13 5 -11 0 -14 -3 -6 -6z"/>
<path d="M4237 9500 c-18 -18 -35 -26 -45 -23 -15 5 -15 4 -2 -10 30 -31 103
11 83 48 -6 10 -14 7 -36 -15z"/>
<path d="M6090 9490 c0 -5 5 -10 11 -10 5 0 7 5 4 10 -3 6 -8 10 -11 10 -2 0
-4 -4 -4 -10z"/>
<path d="M6550 9444 c0 -8 5 -12 10 -9 6 3 10 10 10 16 0 5 -4 9 -10 9 -5 0
-10 -7 -10 -16z"/>
<path d="M6467 9424 c-3 -4 -1 -16 4 -27 9 -16 13 -17 20 -6 13 21 11 39 -4
39 -8 0 -17 -3 -20 -6z"/>
<path d="M4010 9400 c0 -5 5 -10 10 -10 6 0 10 5 10 10 0 6 -4 10 -10 10 -5 0
-10 -4 -10 -10z"/>
<path d="M6688 9363 c-20 -5 -22 -11 -8 -33 8 -13 11 -13 27 2 19 20 8 37 -19
31z"/>
<path d="M6745 9350 c-10 -11 -15 -23 -12 -27 8 -7 47 25 47 39 0 14 -16 9
-35 -12z"/>
<path d="M4788 9293 c7 -3 16 -2 19 1 4 3 -2 6 -13 5 -11 0 -14 -3 -6 -6z"/>
<path d="M4718 9283 c7 -3 16 -2 19 1 4 3 -2 6 -13 5 -11 0 -14 -3 -6 -6z"/>
<path d="M4677 9274 c-4 -4 -7 -18 -7 -31 0 -16 -4 -22 -12 -17 -8 5 -9 -4 -5
-32 4 -21 23 -149 43 -284 19 -135 37 -247 40 -249 2 -2 4 18 4 45 0 34 3 45
10 34 18 -29 23 1 11 70 -7 43 -19 78 -30 89 -14 14 -20 41 -25 103 -4 46 -5
95 -2 108 8 31 -16 175 -27 164z"/>
<path d="M5710 9253 c0 -16 -11 -118 -25 -228 -14 -110 -28 -218 -30 -240 -3
-22 -16 -128 -30 -235 -29 -227 -28 -217 -13 -202 9 9 14 7 24 -6 10 -14 13
-6 18 48 3 36 5 92 4 125 -2 101 13 235 27 235 8 0 15 20 19 48 14 103 11 98
66 98 58 0 85 20 101 75 24 78 -11 139 -86 153 -31 6 -34 10 -30 34 12 79 14
122 5 122 -6 0 -10 -5 -10 -12 0 -9 -3 -9 -12 0 -19 19 -28 14 -28 -15z m120
-177 c0 -11 -19 -15 -25 -6 -3 5 1 10 9 10 9 0 16 -2 16 -4z m-16 -92 c25 -10
21 -60 -5 -67 -37 -10 -78 3 -72 22 15 42 43 58 77 45z"/>
<path d="M4528 9253 c6 -2 18 -2 25 0 6 3 1 5 -13 5 -14 0 -19 -2 -12 -5z"/>
<path d="M3595 9240 c3 -5 8 -10 11 -10 2 0 4 5 4 10 0 6 -5 10 -11 10 -5 0
-7 -4 -4 -10z"/>
<path d="M4458 9243 c7 -3 16 -2 19 1 4 3 -2 6 -13 5 -11 0 -14 -3 -6 -6z"/>
<path d="M6490 9140 c8 -5 20 -10 25 -10 6 0 3 5 -5 10 -8 5 -19 10 -25 10 -5
0 -3 -5 5 -10z"/>
<path d="M2946 9091 c-4 -5 -2 -12 3 -15 5 -4 12 -2 15 3 4 5 2 12 -3 15 -5 4
-12 2 -15 -3z"/>
<path d="M3148 9093 c6 -2 18 -2 25 0 6 3 1 5 -13 5 -14 0 -19 -2 -12 -5z"/>
<path d="M3840 9092 c0 -4 18 -6 40 -4 22 2 40 6 40 8 0 2 -18 4 -40 4 -22 0
-40 -3 -40 -8z"/>
<path d="M3948 9093 c7 -3 16 -2 19 1 4 3 -2 6 -13 5 -11 0 -14 -3 -6 -6z"/>
<path d="M7360 9085 c0 -9 6 -12 15 -9 8 4 15 10 15 15 0 5 -7 9 -15 9 -8 0
-15 -7 -15 -15z"/>
<path d="M3782 9072 c-9 -7 -8 -20 7 -65 11 -31 24 -65 30 -74 10 -17 10 -17
11 0 0 9 7 17 15 17 18 0 18 7 4 49 -13 36 -29 41 -30 9 -1 -19 -2 -18 -10 7
-5 18 -5 33 1 39 7 7 10 5 10 -4 0 -7 2 -11 5 -8 9 8 -6 38 -19 38 -6 0 -17
-4 -24 -8z"/>
<path d="M2845 9030 c3 -5 8 -10 11 -10 2 0 4 5 4 10 0 6 -5 10 -11 10 -5 0
-7 -4 -4 -10z"/>
<path d="M7700 9018 c0 -10 -7 -18 -15 -18 -8 0 -15 -4 -15 -10 0 -12 47 -13
54 -1 3 4 -1 17 -9 27 -13 17 -14 18 -15 2z"/>
<path d="M6867 9009 c7 -7 15 -10 18 -7 3 3 -2 9 -12 12 -14 6 -15 5 -6 -5z"/>
<path d="M3048 8993 c7 -3 16 -2 19 1 4 3 -2 6 -13 5 -11 0 -14 -3 -6 -6z"/>
<path d="M7578 8979 c-23 -13 -23 -45 -1 -67 18 -18 18 -20 -3 32 -3 9 3 17
15 21 12 3 21 11 21 16 0 12 -10 11 -32 -2z"/>
<path d="M7707 8943 c-4 -3 -7 -11 -7 -17 0 -6 5 -5 12 2 6 6 9 14 7 17 -3 3
-9 2 -12 -2z"/>
<path d="M4481 8884 c0 -11 3 -14 6 -6 3 7 2 16 -1 19 -3 4 -6 -2 -5 -13z"/>
<path d="M7830 8850 c0 -5 5 -10 10 -10 6 0 10 5 10 10 0 6 -4 10 -10 10 -5 0
-10 -4 -10 -10z"/>
<path d="M5928 8793 c7 -3 16 -2 19 1 4 3 -2 6 -13 5 -11 0 -14 -3 -6 -6z"/>
<path d="M8007 8673 c-10 -10 -8 -45 2 -39 11 7 21 46 12 46 -4 0 -11 -3 -14
-7z"/>
<path d="M2276 8661 c-4 -7 -5 -15 -2 -18 9 -9 19 4 14 18 -4 11 -6 11 -12 0z"/>
<path d="M2330 8660 c-13 -8 -12 -10 3 -10 9 0 17 5 17 10 0 12 -1 12 -20 0z"/>
<path d="M2301 8631 c-8 -5 -9 -11 -3 -15 5 -3 12 1 16 9 6 17 6 18 -13 6z"/>
<path d="M7496 8585 c-22 -33 -48 -72 -58 -87 -11 -16 -16 -28 -11 -28 4 0 16
15 27 33 16 28 20 30 29 15 10 -15 14 -13 35 15 13 18 31 46 39 62 15 27 15
29 0 17 -13 -11 -16 -10 -19 10 -3 20 -9 14 -42 -37z m11 -47 c-3 -7 -5 -2 -5
12 0 14 2 19 5 13 2 -7 2 -19 0 -25z"/>
<path d="M2325 8580 c-4 -6 -3 -16 3 -22 13 -13 23 4 13 21 -7 10 -10 10 -16
1z"/>
<path d="M2258 8574 c-5 -4 -8 -16 -8 -28 0 -14 3 -17 11 -9 6 6 9 19 7 28 -1
9 -6 13 -10 9z"/>
<path d="M7680 8556 c0 -2 8 -10 18 -17 15 -13 16 -12 3 4 -13 16 -21 21 -21
13z"/>
<path d="M2160 8506 c0 -9 5 -16 10 -16 6 0 10 4 10 9 0 6 -4 13 -10 16 -5 3
-10 -1 -10 -9z"/>
<path d="M2350 8510 c0 -5 5 -10 10 -10 6 0 10 5 10 10 0 6 -4 10 -10 10 -5 0
-10 -4 -10 -10z"/>
<path d="M2254 8495 c8 -8 18 -15 22 -15 3 0 1 7 -6 15 -7 8 -17 15 -22 15 -5
0 -3 -7 6 -15z"/>
<path d="M2730 8485 c-11 -21 -9 -29 25 -75 24 -33 43 -49 52 -46 8 3 17 6 19
6 13 0 -1 29 -40 80 -43 58 -44 58 -56 35z"/>
<path d="M5796 8503 c-4 -5 -26 -14 -49 -20 l-42 -13 39 5 c22 2 47 11 55 20
8 8 13 15 10 15 -3 0 -9 -3 -13 -7z"/>
<path d="M2220 8471 c-14 -27 -3 -49 23 -46 12 1 23 3 25 4 4 2 -28 61 -33 61
-2 0 -9 -9 -15 -19z"/>
<path d="M7395 8433 l-17 -28 23 22 c12 12 20 25 17 28 -3 3 -13 -7 -23 -22z"/>
<path d="M2045 8400 c28 -12 37 -12 30 0 -3 6 -16 10 -28 9 -21 0 -21 -1 -2
-9z"/>
<path d="M2130 8380 c0 -5 5 -10 10 -10 6 0 10 5 10 10 0 6 -4 10 -10 10 -5 0
-10 -4 -10 -10z"/>
<path d="M2900 8366 c0 -2 8 -10 18 -17 15 -13 16 -12 3 4 -13 16 -21 21 -21
13z"/>
<path d="M1917 8323 c-8 -13 1 -43 13 -43 4 0 10 9 13 20 3 11 1 18 -3 15 -5
-3 -10 0 -12 7 -3 9 -6 9 -11 1z"/>
<path d="M4119 8313 c-13 -16 -12 -17 4 -4 9 7 17 15 17 17 0 8 -8 3 -21 -13z"/>
<path d="M2792 8300 c0 -14 2 -19 5 -12 2 6 2 18 0 25 -3 6 -5 1 -5 -13z"/>
<path d="M8437 8296 c-19 -14 -23 -36 -7 -36 6 0 10 6 10 14 0 8 6 16 13 19 6
2 10 7 7 10 -3 3 -13 0 -23 -7z"/>
<path d="M4083 8281 l-22 -6 20 -60 c12 -33 25 -64 30 -69 15 -16 11 22 -7 55
-8 17 -13 36 -10 42 2 7 8 2 11 -10 4 -12 14 -24 22 -27 11 -5 13 -1 7 17 -14
48 -28 64 -51 58z"/>
<path d="M6428 8255 c-3 -13 -1 -26 4 -27 6 -2 6 -20 2 -43 l-8 -40 -6 40 -5
40 -19 -48 c-20 -53 -20 -52 10 -61 19 -6 24 1 47 61 20 54 22 69 11 71 -8 2
-14 10 -14 18 0 24 -17 16 -22 -11z"/>
<path d="M6510 8270 c-13 -8 -13 -10 2 -10 9 0 20 5 23 10 8 13 -5 13 -25 0z"/>
<path d="M7390 8260 c8 -5 20 -10 25 -10 6 0 3 5 -5 10 -8 5 -19 10 -25 10 -5
0 -3 -5 5 -10z"/>
<path d="M2077 8253 c-4 -3 -7 -11 -7 -17 0 -6 5 -5 12 2 6 6 9 14 7 17 -3 3
-9 2 -12 -2z"/>
<path d="M8597 8236 c-18 -27 -23 -66 -8 -66 5 0 7 9 4 20 -4 15 0 20 16 20
22 0 27 15 12 38 -6 10 -12 7 -24 -12z"/>
<path d="M8561 8242 c-1 -8 -16 -28 -33 -45 -18 -17 -25 -28 -16 -24 10 3 20
2 23 -4 10 -15 27 1 21 18 -4 9 -1 22 5 29 6 7 9 19 6 26 -4 10 -6 10 -6 0z"/>
<path d="M2820 8236 c0 -2 8 -10 18 -17 15 -13 16 -12 3 4 -13 16 -21 21 -21
13z"/>
<path d="M2030 8210 c0 -19 3 -21 12 -12 9 9 9 15 0 24 -9 9 -12 7 -12 -12z"/>
<path d="M1915 8200 c-3 -5 -1 -10 4 -10 6 0 11 5 11 10 0 6 -2 10 -4 10 -3 0
-8 -4 -11 -10z"/>
<path d="M8710 8190 c0 -5 -6 -7 -14 -4 -7 3 -16 -3 -20 -13 -6 -15 -8 -15
-17 -3 -8 13 -11 13 -20 -2 -5 -10 -20 -18 -32 -19 -12 0 -16 -3 -9 -6 17 -7
15 -23 -2 -23 -21 0 -25 -31 -7 -62 18 -34 29 -35 33 -6 2 12 9 23 17 26 9 3
11 -2 6 -17 -4 -12 -2 -21 4 -21 6 0 13 -11 17 -25 5 -19 11 -24 25 -20 11 4
19 2 19 -5 0 -6 -4 -8 -10 -5 -5 3 -10 -1 -10 -9 0 -12 5 -14 24 -6 13 5 26 6
29 3 8 -8 2 41 -7 55 -7 11 5 42 26 69 12 14 41 5 35 -11 -3 -7 4 -12 15 -12
16 0 12 7 -19 36 -21 20 -44 34 -51 32 -18 -6 -62 7 -62 19 0 6 4 8 9 4 5 -3
13 -1 16 5 5 8 12 7 23 -2 14 -12 14 -10 3 10 -12 23 -21 28 -21 12z m30 -64
c0 -11 -19 -15 -25 -6 -3 5 1 10 9 10 9 0 16 -2 16 -4z m-25 -56 c3 -5 -1 -10
-9 -10 -9 0 -16 5 -16 10 0 6 4 10 9 10 6 0 13 -4 16 -10z"/>
<path d="M4140 8185 c0 -5 5 -17 10 -25 5 -8 10 -10 10 -5 0 6 -5 17 -10 25
-5 8 -10 11 -10 5z"/>
<path d="M5410 8061 c0 -5 5 -13 10 -16 6 -3 10 -2 10 4 0 5 -4 13 -10 16 -5
3 -10 2 -10 -4z"/>
<path d="M5167 8043 c-10 -10 -8 -35 2 -29 5 4 12 0 14 -6 4 -9 6 -8 6 2 1 20
-14 42 -22 33z"/>
<path d="M8627 8023 c-3 -5 1 -17 9 -28 14 -18 14 -18 14 2 0 23 -15 39 -23
26z"/>
<path d="M8286 7940 c-50 -47 -56 -50 -80 -39 -53 25 -117 -19 -359 -249 -32
-30 -55 -57 -52 -61 4 -3 13 2 20 12 21 29 100 67 139 67 35 0 35 0 21 -27 -8
-14 -26 -36 -42 -49 -15 -12 -25 -25 -22 -28 3 -4 30 15 59 41 l53 48 99 -105
c55 -58 96 -98 92 -90 -4 8 -13 22 -19 30 -7 8 -20 35 -28 60 -11 32 -21 46
-36 48 -12 2 -21 8 -21 13 0 6 -12 21 -26 34 -15 14 -25 25 -23 26 2 1 15 3
29 4 14 2 34 5 44 7 13 2 22 -4 25 -19 3 -12 20 -32 36 -44 17 -12 47 -38 67
-58 21 -19 40 -32 43 -29 3 3 -24 30 -59 59 -61 50 -77 73 -58 81 4 2 24 22
45 46 32 36 37 49 37 90 0 43 4 51 51 97 36 35 46 51 36 53 -9 2 -14 9 -10 18
9 25 -7 15 -61 -36z m34 -10 c0 -5 -5 -10 -11 -10 -5 0 -7 5 -4 10 3 6 8 10
11 10 2 0 4 -4 4 -10z"/>
<path d="M8847 7983 c-4 -3 -7 -11 -7 -17 0 -6 5 -5 12 2 6 6 9 14 7 17 -3 3
-9 2 -12 -2z"/>
<path d="M3230 7951 c0 -6 4 -13 10 -16 6 -3 7 1 4 9 -7 18 -14 21 -14 7z"/>
<path d="M8801 7941 c-8 -5 -20 -7 -28 -4 -7 3 -13 0 -13 -7 0 -8 8 -10 23 -6
12 3 28 6 35 6 6 0 12 5 12 10 0 12 -10 13 -29 1z"/>
<path d="M6100 7932 c0 -4 5 -13 12 -20 9 -9 9 -12 0 -12 -7 0 -12 -8 -12 -17
0 -14 2 -15 9 -4 5 7 13 11 18 8 5 -3 10 7 10 23 0 22 -5 30 -19 30 -10 0 -18
-4 -18 -8z"/>
<path d="M8798 7898 c-19 -19 -13 -24 11 -9 7 5 12 13 10 18 -2 5 -12 1 -21
-9z"/>
<path d="M3258 7880 c-3 -16 -1 -30 4 -30 4 0 8 14 8 30 0 17 -2 30 -4 30 -2
0 -6 -13 -8 -30z"/>
<path d="M6371 7905 c-1 -6 -18 -10 -38 -8 -21 1 -31 0 -22 -3 13 -4 16 -18
15 -62 -1 -44 2 -57 14 -57 8 0 17 11 20 25 4 15 9 20 13 13 9 -14 40 -10 45
5 2 7 -6 12 -18 12 -13 0 -20 5 -17 13 2 6 14 11 26 10 15 -2 21 3 21 17 0 23
-10 25 -29 8 -11 -11 -13 -10 -8 5 4 10 3 16 -2 12 -5 -3 -12 1 -14 7 -3 7 -6
8 -6 3z"/>
<path d="M8937 7874 c6 -18 19 -18 26 -1 3 7 -3 13 -14 14 -12 1 -16 -3 -12
-13z"/>
<path d="M3080 7863 c0 -5 11 -20 25 -33 14 -13 25 -19 25 -13 0 5 -11 20 -25
33 -14 13 -25 19 -25 13z"/>
<path d="M6186 7855 c-11 -8 -17 -18 -13 -21 10 -11 37 4 37 21 0 18 0 18 -24
0z"/>
<path d="M6470 7860 c8 -5 20 -10 25 -10 6 0 3 5 -5 10 -8 5 -19 10 -25 10 -5
0 -3 -5 5 -10z"/>
<path d="M8774 7844 c3 -9 6 -18 6 -20 0 -2 7 -4 15 -4 9 0 12 -6 9 -15 -4 -8
-1 -15 5 -15 19 0 12 29 -10 41 -17 9 -19 13 -8 20 11 7 10 9 -5 9 -12 0 -16
-5 -12 -16z"/>
<path d="M8870 7832 c-16 -13 -20 -21 -12 -26 7 -4 12 -2 12 4 0 6 4 9 9 6 5
-3 12 1 15 10 10 25 2 27 -24 6z"/>
<path d="M3230 7825 c-7 -9 -29 -15 -52 -15 -26 0 -37 -4 -32 -11 3 -6 19 -9
34 -5 25 5 33 -1 76 -59 40 -55 49 -63 63 -53 9 7 18 13 19 14 2 1 -19 34 -46
73 -42 60 -52 69 -62 56z"/>
<path d="M6535 7819 c-4 -6 -5 -12 -2 -15 2 -3 7 2 10 11 7 17 1 20 -8 4z"/>
<path d="M8911 7800 c-1 -22 10 -60 18 -60 3 0 6 13 7 30 1 16 -2 27 -7 25 -4
-3 -10 1 -12 7 -4 9 -6 8 -6 -2z"/>
<path d="M2260 7686 c0 -2 19 -11 43 -19 23 -8 60 -23 82 -32 22 -9 35 -12 30
-6 -6 5 -40 21 -78 36 -70 26 -77 28 -77 21z"/>
<path d="M1465 7659 c-4 -6 0 -18 9 -27 15 -15 16 -15 16 5 0 25 -15 38 -25
22z"/>
<path d="M1880 7621 c0 -24 7 -31 43 -46 76 -31 272 -105 280 -105 19 0 -6 19
-33 25 -44 10 -38 29 7 22 20 -4 39 -10 42 -15 3 -5 20 -12 36 -15 l30 -7 -26
14 c-22 13 -181 79 -336 139 l-43 17 0 -29z"/>
<path d="M6830 7629 c0 -5 5 -7 10 -4 6 3 10 8 10 11 0 2 -4 4 -10 4 -5 0 -10
-5 -10 -11z"/>
<path d="M1490 7583 c0 -12 5 -25 10 -28 13 -8 13 15 0 35 -8 12 -10 11 -10
-7z"/>
<path d="M2640 7570 c8 -5 22 -10 30 -10 13 0 13 1 0 10 -8 5 -22 10 -30 10
-13 0 -13 -1 0 -10z"/>
<path d="M7755 7553 l-17 -28 23 22 c12 12 20 25 17 28 -3 3 -13 -7 -23 -22z"/>
<path d="M2580 7550 c20 -13 33 -13 25 0 -3 6 -14 10 -23 10 -15 0 -15 -2 -2
-10z"/>
<path d="M2720 7540 c0 -5 14 -13 32 -18 45 -11 52 -37 7 -27 -50 11 -36 3 84
-49 103 -45 110 -46 122 -29 7 10 11 21 9 24 -4 7 -239 109 -250 109 -2 0 -4
-4 -4 -10z"/>
<path d="M2622 7534 c11 -10 99 -33 93 -24 -3 5 -22 14 -43 20 -42 11 -58 13
-50 4z"/>
<path d="M7726 7505 c-3 -9 -5 -29 -5 -43 1 -20 3 -17 9 13 8 43 7 57 -4 30z"/>
<path d="M9205 7510 c3 -5 8 -10 11 -10 2 0 4 5 4 10 0 6 -5 10 -11 10 -5 0
-7 -4 -4 -10z"/>
<path d="M2315 7460 c3 -5 14 -10 23 -10 15 0 15 2 2 10 -20 13 -33 13 -25 0z"/>
<path d="M2260 7446 c0 -2 7 -7 16 -10 8 -3 12 -2 9 4 -6 10 -25 14 -25 6z"/>
<path d="M9190 7440 c-8 -5 -11 -10 -6 -10 5 0 3 -7 -4 -15 -10 -12 -10 -15 3
-15 8 0 17 11 19 25 3 14 5 25 4 25 0 0 -8 -5 -16 -10z"/>
<path d="M7685 7379 c-28 -27 -53 -49 -57 -49 -15 0 -8 -28 8 -34 18 -7 24 -2
83 53 33 31 37 39 27 57 -11 20 -13 19 -61 -27z"/>
<path d="M9273 7386 c-9 -11 -9 -23 -1 -50 13 -41 38 -50 30 -11 -2 14 -8 22
-13 19 -5 -3 -9 4 -9 16 0 12 4 18 10 15 6 -3 7 1 4 9 -7 19 -6 19 -21 2z"/>
<path d="M1270 7379 c0 -8 32 -29 44 -29 3 0 6 6 6 14 0 7 -11 16 -25 18 -14
3 -25 2 -25 -3z"/>
<path d="M7798 7373 c12 -2 30 -2 40 0 9 3 -1 5 -23 4 -22 0 -30 -2 -17 -4z"/>
<path d="M5058 7333 c7 -3 16 -2 19 1 4 3 -2 6 -13 5 -11 0 -14 -3 -6 -6z"/>
<path d="M1200 7295 c0 -18 19 -40 26 -32 4 4 0 15 -9 24 -9 10 -17 13 -17 8z"/>
<path d="M8752 7217 c-115 -72 -138 -93 -63 -56 24 11 51 17 62 14 12 -4 40 6
79 30 64 39 67 43 48 67 -12 14 -26 8 -126 -55z"/>
<path d="M9170 7275 c-15 -18 -6 -45 15 -45 8 0 15 -5 15 -11 0 -5 5 -7 12 -3
8 5 9 2 5 -9 -8 -21 6 -22 24 -1 10 13 10 17 -2 25 -8 5 -22 9 -32 9 -14 0
-16 5 -11 25 7 28 -7 33 -26 10z"/>
<path d="M9233 7274 c-4 -10 1 -22 10 -29 10 -7 17 -17 17 -24 0 -23 18 -10
23 17 8 44 -35 75 -50 36z"/>
<path d="M4957 7243 c-15 -14 -6 -33 16 -33 38 0 67 12 67 26 0 15 -70 21 -83
7z"/>
<path d="M5121 7224 c0 -11 3 -14 6 -6 3 7 2 16 -1 19 -3 4 -6 -2 -5 -13z"/>
<path d="M5228 7203 c-44 -11 -6 -42 61 -50 47 -5 51 -4 51 16 0 32 -55 49
-112 34z"/>
<path d="M9400 7181 c0 -6 4 -13 10 -16 6 -3 7 1 4 9 -7 18 -14 21 -14 7z"/>
<path d="M4650 7152 c-39 -19 -51 -48 -24 -59 21 -8 101 33 115 59 8 16 6 18
-23 18 -18 0 -49 -8 -68 -18z"/>
<path d="M5902 7160 c-43 -10 -49 -17 -30 -36 23 -23 91 -30 107 -11 33 41 -6
65 -77 47z"/>
<path d="M6285 7145 c-3 -14 -7 -36 -10 -49 -4 -21 -8 -23 -55 -18 -29 3 -50
0 -50 -5 0 -20 38 -43 71 -43 25 0 30 -3 19 -10 -8 -5 -15 -25 -16 -45 0 -20
-7 -40 -14 -45 -10 -6 -9 -9 1 -14 11 -5 11 -7 2 -12 -17 -8 -16 -24 1 -24 19
0 26 -21 14 -43 -6 -12 -4 -22 8 -35 17 -16 17 -16 11 8 -5 19 -1 29 16 42 19
15 19 18 5 18 -11 0 -18 8 -18 20 0 11 0 23 0 28 0 4 4 7 9 7 5 0 13 3 17 8 4
4 -1 7 -10 7 -12 0 -16 5 -12 16 3 8 9 43 12 77 3 34 11 68 17 75 7 9 7 16 -1
24 -6 6 -8 17 -5 24 3 8 2 14 -1 14 -3 0 -8 -11 -11 -25z"/>
<path d="M8349 6971 c-331 -199 -319 -190 -300 -219 6 -11 23 -4 75 27 36 23
71 41 76 41 6 0 10 7 10 16 0 9 11 27 25 40 31 29 154 90 175 86 21 -3 139 73
147 95 3 10 22 32 42 50 20 18 34 32 31 32 -3 0 -129 -76 -281 -168z"/>
<path d="M4210 7110 c-14 -11 -20 -20 -14 -20 14 0 50 27 44 33 -3 3 -16 -3
-30 -13z"/>
<path d="M9390 7090 c0 -5 5 -10 11 -10 5 0 7 5 4 10 -3 6 -8 10 -11 10 -2 0
-4 -4 -4 -10z"/>
<path d="M1501 7074 c0 -11 3 -14 6 -6 3 7 2 16 -1 19 -3 4 -6 -2 -5 -13z"/>
<path d="M4152 7070 c0 -14 2 -19 5 -12 2 6 2 18 0 25 -3 6 -5 1 -5 -13z"/>
<path d="M5560 7076 c0 -17 47 -56 67 -56 25 0 28 32 4 52 -28 22 -71 24 -71
4z"/>
<path d="M6385 7070 c-3 -5 -1 -10 4 -10 6 0 11 5 11 10 0 6 -2 10 -4 10 -3 0
-8 -4 -11 -10z"/>
<path d="M4182 7043 c-30 -33 -23 -40 8 -8 13 14 21 27 19 29 -2 3 -14 -7 -27
-21z"/>
<path d="M4335 7051 c-70 -24 -97 -53 -71 -79 18 -18 48 -9 92 30 52 46 41 71
-21 49z"/>
<path d="M4912 7047 c-18 -22 8 -39 47 -31 22 5 31 12 29 23 -4 21 -61 27 -76
8z"/>
<path d="M1494 7025 c21 -16 32 -13 21 4 -3 6 -14 11 -23 11 -15 -1 -15 -2 2
-15z"/>
<path d="M9306 7014 c-4 -9 -4 -19 -1 -22 3 -3 11 0 17 6 9 9 9 15 1 23 -7 7
-12 5 -17 -7z"/>
<path d="M7550 7010 c0 -5 5 -10 10 -10 6 0 10 5 10 10 0 6 -4 10 -10 10 -5 0
-10 -4 -10 -10z"/>
<path d="M5256 6979 c-34 -40 -35 -79 -3 -79 27 0 54 26 57 55 7 63 -13 73
-54 24z"/>
<path d="M1565 6980 c3 -5 10 -10 16 -10 5 0 9 5 9 10 0 6 -7 10 -16 10 -8 0
-12 -4 -9 -10z"/>
<path d="M6326 6966 c-8 -31 -1 -45 14 -30 7 7 7 20 2 34 l-9 24 -7 -28z"/>
<path d="M6435 6980 c-13 -21 51 -70 90 -70 30 0 13 44 -25 62 -41 20 -56 22
-65 8z"/>
<path d="M6205 6959 c-12 -19 5 -23 22 -6 16 16 16 17 1 17 -9 0 -20 -5 -23
-11z"/>
<path d="M4140 6950 c0 -5 5 -10 11 -10 5 0 7 5 4 10 -3 6 -8 10 -11 10 -2 0
-4 -4 -4 -10z"/>
<path d="M4391 6944 c0 -11 3 -14 6 -6 3 7 2 16 -1 19 -3 4 -6 -2 -5 -13z"/>
<path d="M5095 6950 c3 -5 11 -10 16 -10 6 0 7 5 4 10 -3 6 -11 10 -16 10 -6
0 -7 -4 -4 -10z"/>
<path d="M9407 6943 c-4 -3 -7 -11 -7 -17 0 -6 4 -5 9 3 8 12 12 12 25 2 13
-11 16 -11 16 3 0 16 -30 22 -43 9z"/>
<path d="M7552 6920 c0 -14 2 -19 5 -12 2 6 2 18 0 25 -3 6 -5 1 -5 -13z"/>
<path d="M4150 6920 c-12 -7 -10 -9 7 -7 12 0 19 5 17 9 -6 10 -6 10 -24 -2z"/>
<path d="M4654 6894 c-13 -20 -14 -28 -5 -37 10 -9 17 -7 32 12 10 13 19 29
19 37 0 23 -28 16 -46 -12z"/>
<path d="M4115 6890 c3 -5 8 -10 11 -10 2 0 4 5 4 10 0 6 -5 10 -11 10 -5 0
-7 -4 -4 -10z"/>
<path d="M5105 6890 c-3 -5 -1 -10 4 -10 6 0 11 5 11 10 0 6 -2 10 -4 10 -3 0
-8 -4 -11 -10z"/>
<path d="M1636 6877 c2 -7 14 -19 27 -26 21 -13 21 -12 -2 13 -27 29 -33 32
-25 13z"/>
<path d="M4280 6875 c7 -9 15 -13 17 -11 7 7 -7 26 -19 26 -6 0 -6 -6 2 -15z"/>
<path d="M6101 6881 c-24 -16 -5 -38 51 -59 l53 -20 3 25 c2 14 -3 32 -10 40
-18 17 -79 27 -97 14z"/>
<path d="M1006 6871 c-4 -5 -2 -12 3 -15 5 -4 12 -2 15 3 4 5 2 12 -3 15 -5 4
-12 2 -15 -3z"/>
<path d="M5740 6863 c0 -51 64 -105 106 -89 25 10 12 38 -34 73 -48 37 -72 42
-72 16z"/>
<path d="M3962 6845 c-59 -26 -54 -75 6 -54 31 10 52 35 52 58 0 15 -18 13
-58 -4z"/>
<path d="M9517 6833 c-12 -12 -7 -22 8 -17 8 4 15 10 15 15 0 11 -14 12 -23 2z"/>
<path d="M6340 6814 c0 -8 5 -12 10 -9 6 3 10 10 10 16 0 5 -4 9 -10 9 -5 0
-10 -7 -10 -16z"/>
<path d="M6300 6810 c0 -5 5 -10 10 -10 6 0 10 5 10 10 0 6 -4 10 -10 10 -5 0
-10 -4 -10 -10z"/>
<path d="M4225 6800 c-3 -5 1 -10 9 -10 9 0 16 5 16 10 0 6 -4 10 -9 10 -6 0
-13 -4 -16 -10z"/>
<path d="M1757 6789 c7 -7 15 -10 18 -7 3 3 -2 9 -12 12 -14 6 -15 5 -6 -5z"/>
<path d="M4895 6786 c-59 -26 -73 -76 -21 -76 31 0 66 36 66 67 0 26 -4 27
-45 9z"/>
<path d="M6227 6793 c-3 -5 -2 -15 2 -22 7 -10 10 -10 16 -1 4 6 3 16 -3 22
-5 5 -12 6 -15 1z"/>
<path d="M4351 6755 c-34 -39 -41 -82 -14 -92 26 -10 73 49 73 92 0 46 -19 45
-59 0z"/>
<path d="M6480 6769 c0 -7 9 -27 20 -45 24 -37 58 -53 71 -33 17 27 9 49 -23
69 -37 22 -68 26 -68 9z"/>
<path d="M6727 6753 c-11 -10 13 -33 34 -33 25 0 24 16 0 30 -23 12 -26 12
-34 3z"/>
<path d="M931 6737 c-8 -10 -7 -22 1 -45 14 -37 23 -40 31 -11 4 15 2 19 -9
15 -16 -6 -19 15 -3 31 7 7 7 13 1 17 -5 3 -15 0 -21 -7z"/>
<path d="M6226 6742 c-7 -12 3 -42 14 -42 16 0 18 15 5 33 -7 10 -16 14 -19 9z"/>
<path d="M1071 6724 c0 -11 3 -14 6 -6 3 7 2 16 -1 19 -3 4 -6 -2 -5 -13z"/>
<path d="M2220 6735 c0 -5 5 -17 10 -25 5 -8 10 -10 10 -5 0 6 -5 17 -10 25
-5 8 -10 11 -10 5z"/>
<path d="M6310 6700 c0 -22 4 -40 9 -40 5 0 8 18 8 40 -2 52 -17 52 -17 0z"/>
<path d="M5322 6718 c-14 -14 -16 -88 -2 -88 19 0 41 47 34 74 -7 29 -14 32
-32 14z"/>
<path d="M4491 6704 c0 -11 3 -14 6 -6 3 7 2 16 -1 19 -3 4 -6 -2 -5 -13z"/>
<path d="M5145 6710 c3 -5 8 -10 11 -10 2 0 4 5 4 10 0 6 -5 10 -11 10 -5 0
-7 -4 -4 -10z"/>
<path d="M3606 6620 c-109 -103 -189 -248 -207 -378 -14 -98 4 -110 30 -21 30
98 105 244 185 362 37 53 64 97 62 97 -3 0 -34 -27 -70 -60z"/>
<path d="M6220 6636 c0 -54 13 -66 35 -32 15 23 15 27 0 50 -25 38 -35 32 -35
-18z"/>
<path d="M8299 6665 c5 -11 17 -29 26 -40 l16 -20 -10 20 c-5 11 -17 29 -26
40 l-16 20 10 -20z"/>
<path d="M4124 6659 c-3 -6 -1 -16 5 -22 8 -8 11 -5 11 11 0 24 -5 28 -16 11z"/>
<path d="M892 6651 c2 -7 7 -12 11 -12 12 1 9 15 -3 20 -7 2 -11 -2 -8 -8z"/>
<path d="M2279 6640 c13 -11 27 -20 32 -20 18 0 8 10 -23 25 l-33 16 24 -21z"/>
<path d="M3996 6633 c-8 -21 10 -41 24 -27 11 11 3 44 -10 44 -4 0 -11 -8 -14
-17z"/>
<path d="M910 6610 c0 -13 18 -22 24 -11 3 5 -1 11 -9 15 -8 3 -15 1 -15 -4z"/>
<path d="M2265 6610 c-19 -7 -19 -7 3 -14 26 -9 41 -1 26 13 -5 5 -18 5 -29 1z"/>
<path d="M2340 6606 c0 -2 7 -7 16 -10 8 -3 12 -2 9 4 -6 10 -25 14 -25 6z"/>
<path d="M6196 6595 c4 -8 8 -15 10 -15 2 0 4 7 4 15 0 8 -4 15 -10 15 -5 0
-7 -7 -4 -15z"/>
<path d="M8288 6547 c-37 -23 -68 -45 -68 -49 0 -13 27 -9 39 6 7 8 23 17 38
21 29 7 46 22 56 48 3 9 5 17 4 16 -1 0 -32 -19 -69 -42z"/>
<path d="M2328 6568 c5 -5 16 -8 23 -6 8 3 3 7 -10 11 -17 4 -21 3 -13 -5z"/>
<path d="M6170 6570 c0 -5 5 -10 11 -10 5 0 7 5 4 10 -3 6 -8 10 -11 10 -2 0
-4 -4 -4 -10z"/>
<path d="M6295 6569 c-4 -6 -5 -13 -2 -16 7 -7 27 6 27 18 0 12 -17 12 -25 -2z"/>
<path d="M6940 6575 c0 -3 23 -44 50 -89 46 -77 130 -260 130 -285 0 -5 5 -22
10 -37 8 -19 14 -24 21 -17 30 30 -44 241 -122 346 -41 57 -89 100 -89 82z"/>
<path d="M5167 6555 c18 -13 33 -11 33 4 0 5 -11 9 -25 9 -23 0 -24 -2 -8 -13z"/>
<path d="M5564 6546 c-3 -8 -4 -29 -2 -48 2 -28 7 -33 28 -33 31 0 39 35 16
71 -18 27 -34 31 -42 10z"/>
<path d="M9125 6506 c-60 -24 -164 -62 -230 -86 -121 -44 -159 -62 -111 -53
34 7 34 -15 1 -23 -14 -3 -25 -10 -25 -14 0 -16 82 24 97 47 10 15 29 25 55
29 22 4 45 12 51 18 16 14 109 46 118 40 14 -8 21 -108 10 -139 -11 -28 -10
-29 5 -10 12 15 15 34 11 76 l-5 55 69 24 c64 21 69 25 69 52 0 15 -1 28 -2
27 -2 0 -52 -20 -113 -43z"/>
<path d="M6277 6524 c-9 -10 2 -24 19 -24 8 0 14 7 14 15 0 15 -21 21 -33 9z"/>
<path d="M9591 6514 c0 -11 3 -14 6 -6 3 7 2 16 -1 19 -3 4 -6 -2 -5 -13z"/>
<path d="M6160 6506 c0 -2 7 -7 16 -10 8 -3 12 -2 9 4 -6 10 -25 14 -25 6z"/>
<path d="M4506 6478 c-21 -29 -20 -67 0 -75 23 -9 46 25 42 61 -4 37 -22 43
-42 14z"/>
<path d="M6597 6494 c-12 -12 -8 -49 8 -70 13 -16 16 -17 25 -4 16 24 -15 92
-33 74z"/>
<path d="M5992 6469 c4 -29 33 -48 49 -32 10 10 8 17 -6 33 -24 27 -47 26 -43
-1z"/>
<path d="M6277 6484 c-4 -4 -1 -14 6 -22 10 -13 9 -15 -6 -9 -12 4 -17 3 -15
-4 6 -17 20 -15 32 3 11 18 -3 45 -17 32z"/>
<path d="M6183 6454 c-9 -19 -8 -24 3 -24 18 0 30 28 18 40 -5 5 -14 -1 -21
-16z"/>
<path d="M6325 6460 c-3 -5 -1 -10 4 -10 6 0 11 5 11 10 0 6 -2 10 -4 10 -3 0
-8 -4 -11 -10z"/>
<path d="M8345 6450 c-7 -12 2 -12 30 0 19 8 19 9 -2 9 -12 1 -25 -3 -28 -9z"/>
<path d="M9657 6444 c-3 -3 -4 -11 -3 -17 2 -7 1 -9 -1 -4 -7 11 -33 9 -33 -3
0 -12 42 -30 71 -30 13 0 19 7 19 21 0 16 -5 20 -19 16 -14 -3 -18 -1 -14 9 5
14 -8 19 -20 8z"/>
<path d="M9575 6431 c3 -6 -4 -18 -15 -29 -13 -12 -18 -25 -14 -36 5 -13 11
-8 25 24 22 49 22 50 8 50 -5 0 -8 -4 -4 -9z"/>
<path d="M8276 6421 c-4 -5 3 -7 14 -4 23 6 26 13 6 13 -8 0 -17 -4 -20 -9z"/>
<path d="M3562 6375 c-18 -27 -38 -67 -44 -89 -15 -51 -15 -173 0 -188 12 -12
15 -2 27 77 3 22 17 80 31 129 32 114 28 135 -14 71z"/>
<path d="M6160 6401 c0 -5 7 -12 16 -15 14 -5 15 -4 4 9 -14 17 -20 19 -20 6z"/>
<path d="M6300 6386 c0 -9 5 -16 10 -16 6 0 10 4 10 9 0 6 -4 13 -10 16 -5 3
-10 -1 -10 -9z"/>
<path d="M9703 6364 c-3 -8 -1 -20 6 -27 8 -8 11 -4 11 16 0 30 -7 35 -17 11z"/>
<path d="M4280 6350 c0 -5 7 -10 16 -10 8 0 12 5 9 10 -3 6 -10 10 -16 10 -5
0 -9 -4 -9 -10z"/>
<path d="M6240 6346 c0 -10 9 -16 25 -16 14 0 25 5 25 11 0 5 -5 7 -10 4 -6
-4 -17 -1 -25 5 -12 10 -15 9 -15 -4z"/>
<path d="M8693 6350 c-13 -5 -23 -12 -23 -16 0 -8 53 5 65 17 12 12 -12 11
-42 -1z"/>
<path d="M4112 6328 c7 -15 15 -23 17 -17 2 6 -4 18 -13 27 -15 15 -15 15 -4
-10z"/>
<path d="M8871 6339 c-1 -8 6 -24 15 -35 15 -19 15 -19 6 1 -5 11 -12 27 -15
35 -5 13 -6 13 -6 -1z"/>
<path d="M9700 6310 c-1 -3 -4 -22 -5 -42 -3 -30 0 -40 16 -49 28 -15 36 -3
15 20 -10 11 -16 23 -13 28 2 4 1 17 -4 28 -4 11 -8 18 -9 15z"/>
<path d="M7005 6291 c-3 -5 -1 -12 5 -16 5 -3 10 1 10 9 0 18 -6 21 -15 7z"/>
<path d="M7940 6291 c0 -6 4 -13 10 -16 6 -3 7 1 4 9 -7 18 -14 21 -14 7z"/>
<path d="M6282 6270 c0 -14 2 -19 5 -12 2 6 2 18 0 25 -3 6 -5 1 -5 -13z"/>
<path d="M4798 6274 c-4 -5 3 -27 14 -49 12 -23 21 -62 22 -92 0 -30 5 -51 11
-50 17 6 13 90 -5 117 -10 14 -21 38 -27 55 -5 16 -12 25 -15 19z"/>
<path d="M3630 6244 c-11 -28 -13 -123 -4 -148 16 -41 25 -9 23 79 -1 52 -4
95 -6 95 -2 0 -8 -12 -13 -26z"/>
<path d="M4220 6266 c0 -2 7 -7 16 -10 8 -3 12 -2 9 4 -6 10 -25 14 -25 6z"/>
<path d="M1166 6234 c-9 -25 11 -34 64 -29 34 3 38 3 15 -3 l-30 -8 27 -7 c14
-4 33 -9 41 -13 9 -3 16 3 20 16 4 17 -1 24 -26 35 -18 7 -48 16 -68 20 -29 5
-38 3 -43 -11z"/>
<path d="M6125 6239 c-4 -6 -5 -12 -2 -15 2 -3 7 2 10 11 7 17 1 20 -8 4z"/>
<path d="M4411 6214 c0 -11 3 -14 6 -6 3 7 2 16 -1 19 -3 4 -6 -2 -5 -13z"/>
<path d="M6981 6184 c-24 -28 -22 -51 9 -79 19 -17 20 -17 30 11 12 29 5 94
-9 94 -4 0 -17 -12 -30 -26z m38 -22 c0 -11 -2 -12 -6 -4 -2 6 -9 10 -14 7 -5
-4 -6 1 -3 9 8 20 24 11 23 -12z"/>
<path d="M6120 6181 c0 -6 4 -13 10 -16 6 -3 7 1 4 9 -7 18 -14 21 -14 7z"/>
<path d="M6767 6173 c-2 -4 -1 -17 3 -27 6 -19 7 -19 14 -1 7 19 -8 44 -17 28z"/>
<path d="M6101 6144 c0 -11 3 -14 6 -6 3 7 2 16 -1 19 -3 4 -6 -2 -5 -13z"/>
<path d="M9700 6151 c0 -18 18 -21 30 -6 10 13 9 15 -9 15 -11 0 -21 -4 -21
-9z"/>
<path d="M4300 6130 c-13 -8 -12 -10 3 -10 9 0 17 5 17 10 0 12 -1 12 -20 0z"/>
<path d="M9740 6129 c0 -5 5 -7 10 -4 6 3 10 8 10 11 0 2 -4 4 -10 4 -5 0 -10
-5 -10 -11z"/>
<path d="M1320 6121 c0 -6 4 -13 10 -16 6 -3 7 1 4 9 -7 18 -14 21 -14 7z"/>
<path d="M4495 6110 c3 -5 8 -10 11 -10 2 0 4 5 4 10 0 6 -5 10 -11 10 -5 0
-7 -4 -4 -10z"/>
<path d="M3885 6080 c3 -5 8 -10 11 -10 2 0 4 5 4 10 0 6 -5 10 -11 10 -5 0
-7 -4 -4 -10z"/>
<path d="M6105 6060 c4 -6 11 -8 16 -5 14 9 11 15 -7 15 -8 0 -12 -5 -9 -10z"/>
<path d="M746 6043 c-6 -14 -5 -15 5 -6 7 7 10 15 7 18 -3 3 -9 -2 -12 -12z"/>
<path d="M6147 6053 c-10 -9 -9 -23 2 -23 5 0 11 7 15 15 5 15 -5 20 -17 8z"/>
<path d="M6653 6038 c-32 -70 -150 -110 -381 -130 -124 -10 -145 -10 -153 2
-7 11 -11 12 -17 3 -12 -18 -43 -22 -282 -33 -353 -16 -410 -21 -380 -33 15
-6 147 -11 340 -11 l315 -1 -2 -30 c-1 -22 0 -24 4 -7 5 23 5 23 26 5 13 -11
17 -12 10 -3 -23 31 2 41 153 60 237 31 317 58 362 125 13 18 22 44 20 56 -3
23 -3 23 -15 -3z"/>
<path d="M3410 6039 c0 -16 75 -57 142 -77 87 -27 265 -59 463 -84 150 -18
716 -38 770 -26 19 4 -85 17 -312 38 -557 53 -897 100 -1024 144 -21 8 -39 10
-39 5z"/>
<path d="M4376 6032 c-3 -5 1 -9 9 -9 8 0 12 4 9 9 -3 4 -7 8 -9 8 -2 0 -6 -4
-9 -8z"/>
<path d="M6925 5990 c-134 -35 -166 -48 -145 -60 25 -14 161 15 228 49 101 51
81 53 -83 11z"/>
<path d="M4412 5990 c0 -14 2 -19 5 -12 2 6 2 18 0 25 -3 6 -5 1 -5 -13z"/>
<path d="M1960 5991 c0 -4 -11 -20 -25 -35 -20 -22 -33 -26 -76 -26 -59 0 -61
-7 -6 -15 27 -5 46 0 74 16 l38 22 74 -21 c41 -12 76 -21 77 -19 1 1 4 11 8
22 5 19 -2 23 -69 43 -82 24 -95 26 -95 13z"/>
<path d="M4780 5990 c0 -5 5 -10 11 -10 5 0 7 5 4 10 -3 6 -8 10 -11 10 -2 0
-4 -4 -4 -10z"/>
<path d="M2365 5960 c3 -5 8 -10 11 -10 2 0 4 5 4 10 0 6 -5 10 -11 10 -5 0
-7 -4 -4 -10z"/>
<path d="M7235 5934 c-83 -50 -215 -81 -505 -118 -172 -22 -269 -30 -630 -51
-418 -24 -1224 -30 -1450 -10 -25 2 -115 6 -200 10 -469 19 -959 84 -1097 145
-47 21 -62 17 -63 -17 0 -16 -32 -17 -48 -1 -6 6 -14 9 -18 6 -3 -4 13 -19 35
-34 23 -14 41 -30 41 -34 0 -12 -40 -20 -100 -20 -42 -1 -51 -3 -38 -11 31
-18 117 -22 171 -9 53 12 115 5 119 -15 4 -21 -98 -86 -169 -108 -40 -12 -73
-26 -73 -30 0 -10 92 2 145 18 22 7 85 32 140 55 93 39 104 41 163 35 34 -4
62 -10 62 -15 0 -4 -22 -17 -50 -29 -27 -12 -50 -26 -50 -31 0 -13 6 -12 55 1
22 6 53 20 68 31 27 19 34 20 145 8 64 -7 123 -16 130 -19 8 -5 -2 -18 -33
-40 -25 -18 -45 -34 -45 -36 0 -10 84 27 114 50 28 21 40 24 79 19 l45 -6 -58
-49 c-33 -27 -87 -67 -122 -90 -58 -37 -60 -40 -28 -33 37 7 108 40 252 117
75 40 95 47 145 47 l58 0 -47 -33 c-52 -35 -64 -55 -20 -34 15 7 53 26 85 42
l57 28 136 -11 c75 -6 142 -16 150 -23 8 -6 17 -9 21 -5 4 3 17 -3 29 -15 20
-18 21 -25 11 -52 -6 -18 -18 -37 -26 -44 -12 -9 -13 -15 -5 -23 8 -8 22 0 53
31 42 43 48 62 31 89 -12 19 15 27 71 22 l39 -4 -6 -52 c-4 -28 -22 -84 -41
-124 -19 -40 -33 -75 -31 -77 9 -9 93 132 114 189 16 46 27 62 46 67 39 10
390 10 426 0 18 -6 59 -34 92 -64 59 -55 108 -81 91 -48 -5 9 -19 25 -31 36
-20 18 -50 66 -50 80 0 3 21 5 48 5 32 -1 60 -8 87 -25 50 -31 66 -32 35 -3
l-24 23 29 6 c17 4 66 7 109 8 74 1 78 0 64 -16 -23 -27 -38 -81 -31 -113 8
-41 19 -37 27 8 6 38 39 78 82 100 19 10 21 9 16 -13 -2 -14 0 -25 6 -25 5 0
10 6 9 13 -1 48 0 50 61 45 78 -6 181 -58 235 -118 38 -42 115 -190 99 -190
-4 0 -52 41 -107 91 -203 184 -261 192 -388 53 -51 -57 -78 -69 -174 -79 -71
-8 -112 7 -213 75 -83 57 -119 70 -188 70 -132 0 -222 -62 -267 -185 -33 -90
-66 -129 -125 -145 -54 -15 -99 -8 -174 25 -31 14 -67 25 -80 25 -41 0 -50 23
-32 77 32 93 15 158 -54 213 -40 31 -48 34 -109 33 -100 -2 -193 -44 -333
-150 -95 -72 -181 -107 -263 -107 -87 -1 -134 22 -225 109 -112 106 -217 165
-296 165 -98 0 -190 -61 -246 -163 -28 -51 -32 -64 -18 -57 11 6 22 15 25 20
3 6 19 10 36 10 16 0 29 5 29 11 0 23 65 89 101 103 48 20 79 20 104 2 17 -12
17 -13 -7 -19 -35 -9 -117 -57 -97 -57 27 0 44 -27 29 -45 -10 -12 -3 -11 31
4 95 41 199 52 199 20 0 -11 -5 -13 -67 -29 -73 -18 -52 -33 35 -26 69 6 80 5
95 -12 16 -18 16 -19 -22 -30 -21 -7 -45 -19 -52 -28 -11 -14 -10 -19 10 -35
54 -44 290 -100 431 -102 88 -2 99 0 144 27 26 15 81 59 121 97 68 65 75 69
119 69 l46 0 -37 -47 c-43 -57 -65 -106 -57 -127 11 -30 105 -37 289 -22 99 8
200 -5 179 -23 -28 -25 -445 -55 -629 -46 -422 21 -707 94 -813 209 -30 33
-42 40 -46 29 -9 -22 -7 -91 4 -157 10 -63 2 -98 -17 -74 -6 7 -13 24 -15 38
-1 14 -7 23 -13 20 -29 -15 15 -93 80 -142 96 -73 361 -153 602 -182 570 -70
1189 15 1526 210 l77 45 103 -35 c232 -78 486 -116 790 -116 297 0 470 26 594
89 89 45 145 120 109 146 -11 9 -17 36 -22 101 -4 49 -11 95 -17 102 -8 10 -2
12 26 10 58 -3 52 7 -13 25 -33 9 -83 32 -112 51 -75 48 -154 86 -177 86 -36
0 -32 19 6 38 94 48 194 35 246 -31 72 -91 101 -115 149 -122 30 -5 54 -3 69
6 23 13 23 13 -20 21 -60 10 -83 28 -130 97 -55 81 -95 103 -191 109 -154 9
-229 -43 -266 -183 -8 -27 -14 -65 -14 -84 0 -25 -9 -43 -39 -72 -34 -34 -45
-39 -84 -39 -61 0 -98 37 -152 155 -49 104 -82 147 -144 187 l-45 28 33 0 c21
0 47 -12 78 -35 46 -35 125 -65 171 -65 19 0 10 7 -34 30 -63 31 -119 80 -93
80 51 0 255 24 366 42 147 25 122 28 328 -41 137 -47 125 -44 125 -32 0 4 -37
26 -82 47 -136 65 -141 69 -85 79 23 5 47 -1 87 -19 69 -33 156 -36 191 -7
l24 19 -48 -5 c-51 -6 -137 19 -137 40 1 7 24 23 53 37 58 28 72 50 33 50 -31
0 -44 23 -26 45 16 19 14 18 -35 -11z m-2618 -404 c6 0 25 -12 42 -26 33 -28
41 -61 16 -70 -8 -4 -15 -10 -15 -16 0 -5 5 -6 10 -3 6 3 10 -3 10 -14 0 -32
-17 -33 -29 -2 -19 45 -104 98 -120 73 -7 -12 -111 -3 -111 9 0 22 122 62 165
53 11 -2 25 -4 32 -4z m1548 -26 c14 -6 85 -131 85 -150 0 -8 -99 4 -118 15
-10 6 -11 10 -3 15 16 10 13 46 -4 46 -8 0 -15 -4 -15 -8 0 -5 -6 -16 -13 -25
-11 -16 -16 -16 -51 -4 l-39 13 36 40 c34 37 36 38 50 20 14 -19 15 -19 22 5
4 13 13 27 19 31 14 9 11 9 31 2z m791 -29 c27 -14 62 -35 79 -49 l29 -23 -89
-28 c-105 -32 -155 -41 -155 -29 0 19 41 75 50 69 6 -3 10 -2 10 4 0 5 -5 11
-11 13 -8 3 -9 15 -4 36 8 39 24 41 91 7z m-1508 -35 c39 -23 52 -36 52 -53
-1 -28 -16 -106 -22 -113 -6 -6 -161 79 -206 113 -32 24 -33 26 -16 44 41 45
122 49 192 9z m994 -156 c109 -56 250 -58 328 -4 14 10 61 23 104 30 101 15
158 33 190 58 23 18 31 19 65 8 22 -6 43 -14 46 -18 11 -11 -82 -65 -149 -87
-133 -44 -382 -61 -611 -42 -148 12 -323 42 -334 57 -3 5 -26 10 -51 11 -25 1
-72 10 -105 20 l-60 19 53 17 c48 16 55 16 102 1 28 -9 50 -19 50 -23 0 -3 15
-7 33 -7 17 -1 61 -5 97 -9 55 -6 68 -5 79 9 13 15 11 23 -7 62 -12 24 -22 50
-22 56 0 6 36 -23 79 -65 44 -42 94 -83 113 -93z m-2128 65 c-52 -56 -103 -90
-160 -110 -52 -18 -65 -19 -153 -9 -53 7 -127 22 -166 35 -38 12 -85 26 -102
30 -38 8 -42 22 -10 34 16 6 33 2 62 -14 64 -36 126 -48 219 -43 65 3 86 1 90
-9 6 -15 45 -17 66 -3 13 9 13 12 -3 24 -13 10 -15 16 -5 23 34 27 141 71 177
72 9 1 4 -11 -15 -30z m1251 25 c13 -5 15 -16 9 -68 -8 -74 -10 -79 -33 -67
-18 10 -18 22 -5 109 5 35 5 35 29 26z m-973 -25 c26 -19 68 -93 68 -120 0
-11 -217 -12 -224 0 -3 4 14 38 37 75 47 74 67 82 119 45z m1047 -9 c16 -8 17
-16 9 -62 -13 -78 -14 -81 -38 -68 -21 11 -25 36 -14 103 7 39 14 43 43 27z
m229 -71 c155 -41 349 -75 507 -90 127 -12 445 -7 493 7 23 7 23 6 16 -42 -11
-81 -18 -90 -66 -98 -24 -3 -122 -9 -218 -12 -273 -10 -560 31 -820 115 l-115
37 4 65 c2 35 5 67 7 71 3 4 21 0 40 -8 20 -8 88 -29 152 -45z m-590 25 c12
-8 22 -19 22 -24 0 -10 -129 -54 -137 -46 -9 9 58 86 76 86 9 0 27 -7 39 -16z
m-1148 -3 c0 -12 -20 -25 -27 -18 -7 7 6 27 18 27 5 0 9 -4 9 -9z m3039 -47
c-14 -52 -29 -66 -29 -28 0 27 27 81 36 72 2 -2 -1 -22 -7 -44z m-3733 -69 c7
-60 7 -60 -14 -42 -11 10 -23 35 -26 55 -4 20 -9 51 -12 67 l-6 30 26 -25 c19
-19 27 -39 32 -85z m3671 53 c-3 -13 -9 -40 -12 -60 -7 -35 -29 -67 -40 -56
-9 8 17 123 28 130 21 14 29 8 24 -14z m-79 -82 c-12 -46 -39 -78 -53 -64 -4
3 -1 34 6 68 9 47 17 64 33 70 27 10 30 -9 14 -74z m-3518 34 c0 -10 3 -38 6
-64 7 -48 0 -56 -28 -33 -10 7 -19 36 -23 75 l-7 62 26 -11 c14 -7 26 -20 26
-29z m1885 7 c9 -44 3 -89 -11 -94 -11 -4 -26 103 -17 120 10 17 22 5 28 -26z
m1565 4 c0 -38 -27 -114 -43 -122 -10 -6 -21 -8 -24 -6 -5 5 15 115 24 130 6
10 43 9 43 -2z m-1638 -62 c2 -41 -1 -64 -10 -71 -19 -17 -26 -3 -30 67 -4 60
-3 65 16 65 18 0 21 -8 24 -61z m-1728 19 c11 -52 15 -118 8 -118 -24 1 -37
24 -42 79 -5 54 -4 61 12 61 10 0 20 -9 22 -22z m1656 -52 l0 -63 -58 -17
c-67 -18 -92 -20 -92 -6 0 6 -5 10 -11 10 -6 0 -9 -7 -5 -15 3 -8 4 -15 3 -15
-2 0 -44 -9 -93 -20 -165 -36 -345 -51 -619 -52 -282 -2 -408 10 -600 58 -152
37 -145 32 -145 109 0 59 2 66 18 61 137 -40 350 -73 555 -85 161 -10 468 0
607 19 174 24 170 23 170 9 0 -8 6 -5 14 7 11 15 35 24 84 33 38 7 89 18 113
25 24 8 47 12 52 9 4 -2 7 -33 7 -67z m257 57 c2 -6 -3 -13 -12 -16 -10 -5
-15 0 -15 14 0 21 21 22 27 2z"/>
<path d="M5751 5223 c0 -25 1 -26 9 -8 12 27 12 35 0 35 -5 0 -10 -12 -9 -27z"/>
<path d="M6330 5074 c0 -14 4 -23 10 -19 6 3 10 15 10 26 0 10 -4 19 -10 19
-5 0 -10 -12 -10 -26z"/>
<path d="M5160 5089 c0 -5 5 -7 10 -4 6 3 10 8 10 11 0 2 -4 4 -10 4 -5 0 -10
-5 -10 -11z"/>
<path d="M5084 5079 c-3 -6 -1 -16 5 -22 8 -8 11 -5 11 11 0 24 -5 28 -16 11z"/>
<path d="M6130 5940 c0 -5 7 -10 16 -10 8 0 12 5 9 10 -3 6 -10 10 -16 10 -5
0 -9 -4 -9 -10z"/>
<path d="M2970 5890 c0 -6 16 -33 35 -61 19 -28 37 -67 41 -87 4 -20 13 -44
21 -53 7 -9 11 -25 7 -35 -5 -16 -4 -16 5 -4 17 24 13 107 -8 148 -19 38 -78
102 -93 102 -4 0 -8 -5 -8 -10z"/>
<path d="M4290 5815 c1 -26 2 -28 11 -12 8 14 8 22 0 30 -8 8 -11 3 -11 -18z"/>
<path d="M4790 5795 c-7 -9 -8 -15 -2 -15 5 0 12 7 16 15 3 8 4 15 2 15 -2 0
-9 -7 -16 -15z"/>
<path d="M7474 5738 c-20 -38 -23 -105 -6 -133 9 -17 11 -10 12 38 0 32 7 73
14 92 19 44 2 46 -20 3z"/>
<path d="M670 5641 c0 -10 19 -25 25 -20 1 2 -3 10 -11 17 -8 7 -14 8 -14 3z"/>
<path d="M4140 5541 c0 -5 7 -12 16 -15 14 -5 15 -4 4 9 -14 17 -20 19 -20 6z"/>
<path d="M3000 5496 c0 -47 48 -82 108 -77 25 2 12 31 -14 31 -18 0 -38 12
-60 36 -34 35 -34 35 -34 10z"/>
<path d="M3820 5503 c0 -33 68 -99 115 -112 43 -11 96 -3 103 17 2 8 -10 12
-37 12 -56 0 -90 15 -138 63 -38 36 -43 39 -43 20z"/>
<path d="M821 5494 c0 -11 3 -14 6 -6 3 7 2 16 -1 19 -3 4 -6 -2 -5 -13z"/>
<path d="M9860 5477 c0 -27 -27 -43 -59 -35 -8 2 -14 -7 -16 -19 -1 -16 4 -23
17 -23 27 0 22 -19 -7 -26 -26 -6 -30 -31 -4 -27 8 2 20 -10 27 -25 10 -22 10
-29 -1 -37 -15 -11 -17 -95 -3 -95 6 0 5 -5 -2 -12 -18 -18 -15 -28 8 -28 11
0 20 -6 20 -14 0 -8 6 -17 13 -20 8 -3 5 -11 -12 -25 -13 -12 -18 -21 -12 -21
6 0 11 -6 11 -14 0 -17 -27 -40 -32 -27 -1 5 -12 11 -23 13 -15 2 -20 -3 -20
-21 0 -13 -6 -26 -12 -28 -8 -3 -13 5 -13 21 0 14 -4 26 -10 26 -5 0 -10 5
-10 10 0 6 7 10 15 10 8 0 12 6 9 14 -3 8 4 23 15 33 12 9 21 24 21 31 0 12
-3 12 -15 2 -12 -10 -15 -10 -15 4 0 9 4 16 9 16 13 0 21 27 15 45 -10 24 -22
17 -17 -9 4 -18 -2 -28 -26 -42 -32 -19 -42 -44 -17 -44 8 0 18 -5 22 -12 5
-8 2 -9 -9 -5 -14 5 -17 0 -17 -22 0 -16 -3 -36 -6 -44 -3 -10 2 -17 13 -20
16 -4 16 -5 1 -6 -28 -2 -21 -28 10 -36 15 -4 21 -10 15 -12 -7 -3 -13 -13
-13 -24 0 -10 -4 -19 -9 -19 -13 0 -19 -113 -6 -122 6 -5 6 -8 -2 -8 -7 0 -10
-7 -7 -15 4 -8 1 -15 -5 -15 -6 0 -11 -9 -11 -20 0 -11 5 -20 12 -20 9 0 9 -3
0 -12 -14 -14 -16 -28 -3 -28 5 0 11 9 14 20 6 23 27 27 27 5 0 -9 12 -20 26
-25 21 -9 29 -7 39 7 14 19 11 33 -8 33 -7 0 -17 11 -23 25 -14 29 -5 39 41
49 31 7 62 51 43 62 -5 3 -7 17 -3 31 5 20 2 24 -12 21 -13 -2 -17 -11 -15
-31 2 -16 -1 -27 -8 -27 -7 0 -9 -7 -6 -16 5 -13 1 -15 -24 -12 -17 3 -33 1
-36 -4 -3 -4 0 -8 5 -8 6 0 11 -4 11 -10 0 -20 -25 -9 -37 15 -6 14 -7 25 -3
25 5 0 10 12 12 28 2 20 9 28 28 30 40 6 67 52 30 52 -11 0 -20 5 -20 11 0 6
9 13 20 16 11 3 20 12 20 20 0 13 -3 13 -15 3 -9 -7 -15 -8 -15 -2 0 12 29 24
41 16 5 -3 6 -16 3 -30 -5 -18 -1 -31 14 -44 19 -18 20 -18 17 11 -1 16 -5 32
-9 36 -3 3 -6 14 -6 24 0 13 5 16 16 12 14 -5 16 -2 10 21 -4 17 -1 34 9 49
17 25 20 63 5 72 -6 4 -8 11 -5 16 4 5 3 15 -2 22 -4 6 -6 33 -5 58 1 34 -4
51 -18 67 -24 25 -25 33 -5 26 17 -7 21 11 5 21 -15 9 -12 25 4 25 10 0 12 13
9 52 -4 55 -13 79 -13 35z m-10 -57 c0 -5 -7 -10 -15 -10 -8 0 -15 5 -15 10 0
6 7 10 15 10 8 0 15 -4 15 -10z"/>
<path d="M672 5470 c0 -14 2 -19 5 -12 2 6 2 18 0 25 -3 6 -5 1 -5 -13z"/>
<path d="M9720 5480 c0 -9 5 -21 11 -27 15 -15 3 -33 -21 -33 -13 0 -17 -5
-13 -20 10 -39 46 -24 72 30 27 54 24 69 -8 48 -18 -11 -23 -11 -31 2 -9 13
-10 13 -10 0z"/>
<path d="M5740 5470 c0 -31 68 -40 93 -12 15 17 13 18 -38 18 -30 0 -55 -3
-55 -6z"/>
<path d="M3304 5445 c-10 -8 -14 -15 -8 -15 6 0 17 7 24 15 16 19 9 19 -16 0z"/>
<path d="M4820 5405 c0 -8 4 -15 10 -15 5 0 7 7 4 15 -4 8 -8 15 -10 15 -2 0
-4 -7 -4 -15z"/>
<path d="M6665 5400 c-3 -5 -1 -10 4 -10 6 0 11 5 11 10 0 6 -2 10 -4 10 -3 0
-8 -4 -11 -10z"/>
<path d="M6678 5376 c-16 -12 -28 -28 -28 -36 0 -9 12 -2 32 17 38 38 35 51
-4 19z"/>
<path d="M812 5360 c0 -14 2 -19 5 -12 2 6 2 18 0 25 -3 6 -5 1 -5 -13z"/>
<path d="M4781 5353 c7 -12 15 -20 18 -17 3 2 -3 12 -13 22 -17 16 -18 16 -5
-5z"/>
<path d="M9756 5289 c-40 -11 -63 -46 -30 -46 15 0 70 46 62 52 -2 1 -16 -2
-32 -6z"/>
<path d="M9775 5090 c-7 -12 2 -30 16 -30 12 0 12 27 0 35 -5 3 -12 1 -16 -5z"/>
<path d="M5670 5010 c0 -14 120 -61 202 -78 53 -11 107 -15 148 -12 77 6 63
12 -85 34 -55 8 -137 26 -182 39 -46 14 -83 21 -83 17z"/>
<path d="M5400 4919 c-151 -59 -334 -99 -585 -129 -98 -11 -181 -22 -183 -24
-9 -9 199 -18 277 -12 187 15 274 37 443 114 65 29 152 83 133 81 -6 0 -44
-13 -85 -30z"/>
<path d="M3190 4920 c-41 -11 -81 -28 -90 -36 -14 -15 -13 -16 10 -10 66 19
186 28 215 17 23 -10 26 -14 15 -21 -12 -8 -11 -10 6 -10 12 0 24 -7 27 -15 7
-17 3 -20 -40 -30 -55 -11 -44 -20 25 -21 37 0 75 -5 86 -11 16 -9 11 -12 -30
-22 -57 -15 -84 -36 -84 -66 0 -34 13 -38 26 -7 12 30 51 46 135 58 52 7 87
-5 174 -62 56 -37 58 -39 33 -42 -53 -6 -27 -36 41 -47 48 -8 87 -41 176 -145
51 -60 129 -182 140 -217 5 -20 3 -23 -19 -23 -41 0 -74 17 -126 66 -35 33
-50 42 -50 30 0 -22 24 -69 44 -85 9 -8 16 -18 16 -24 0 -16 -70 0 -94 21 -17
16 -41 21 -116 24 -99 5 -133 16 -199 66 -32 24 -33 24 -26 3 9 -29 -6 -27
-75 10 -93 49 -113 76 -120 161 l-7 73 -2 -57 c0 -32 6 -78 15 -104 11 -33 13
-49 5 -57 -8 -8 -11 -8 -11 0 0 7 -9 14 -19 18 -20 6 -35 37 -50 100 -5 22 -9
32 -10 22 -1 -10 4 -39 11 -65 14 -58 91 -139 160 -170 25 -11 48 -24 51 -29
4 -6 -23 -17 -60 -27 -105 -26 -104 -40 2 -31 50 4 155 7 235 7 117 -1 151 -5
178 -19 17 -10 32 -20 32 -23 0 -3 -16 -15 -35 -27 -34 -22 -72 -69 -63 -78 2
-3 34 11 70 30 89 48 150 65 230 65 l66 0 7 -41 c4 -22 5 -43 2 -46 -3 -3 -21
0 -41 7 -47 15 -92 2 -234 -67 -62 -30 -128 -57 -147 -60 -19 -3 -32 -9 -30
-14 3 -4 22 -5 42 -2 28 5 35 3 31 -8 -2 -8 -14 -18 -26 -24 -12 -5 -22 -13
-22 -18 0 -18 81 7 187 58 129 62 191 76 217 49 11 -11 15 -25 12 -40 -26
-102 -11 -210 34 -255 29 -30 85 -45 126 -35 38 10 71 51 85 107 7 27 16 49
20 49 15 0 24 -99 24 -273 0 -173 8 -213 28 -137 12 48 26 20 28 -55 1 -56 2
-58 10 -25 17 64 22 300 10 410 -22 184 -50 276 -95 312 -26 21 -35 22 -61 2
-18 -13 -21 -30 -25 -138 -6 -132 -21 -176 -60 -176 -38 0 -53 42 -46 128 18
217 19 277 2 342 -35 136 -125 285 -259 426 -129 136 -181 171 -491 327 -58
28 -137 31 -226 7z"/>
<path d="M6260 4904 c-14 -2 -59 -9 -100 -15 -92 -14 -124 -29 -60 -28 25 0
119 8 210 18 131 13 157 18 125 24 -41 7 -129 7 -175 1z"/>
<path d="M811 4874 c0 -11 3 -14 6 -6 3 7 2 16 -1 19 -3 4 -6 -2 -5 -13z"/>
<path d="M6925 4869 c260 -61 323 -97 461 -264 23 -28 44 -47 48 -44 8 7 -109
178 -142 207 -70 62 -230 112 -347 111 -60 -1 -60 -1 -20 -10z"/>
<path d="M670 4830 c0 -5 5 -10 11 -10 5 0 7 5 4 10 -3 6 -8 10 -11 10 -2 0
-4 -4 -4 -10z"/>
<path d="M3720 4820 c14 -12 57 -43 95 -71 95 -66 225 -197 292 -291 58 -84
83 -101 58 -41 -25 60 -125 190 -201 263 -78 74 -129 107 -214 139 l-55 21 25
-20z"/>
<path d="M9780 4830 c0 -5 5 -10 10 -10 6 0 10 5 10 10 0 6 -4 10 -10 10 -5 0
-10 -4 -10 -10z"/>
<path d="M6310 4823 c-262 -18 -467 -64 -695 -155 -291 -116 -615 -326 -797
-516 -126 -132 -185 -281 -208 -527 -11 -120 -11 -253 -1 -300 7 -29 7 -29 13
13 3 23 12 50 19 58 12 14 14 14 20 -3 4 -10 8 -31 8 -48 1 -16 6 -37 12 -45
7 -11 9 10 6 75 -8 156 20 435 45 460 2 2 35 -5 73 -16 93 -25 143 -24 218 7
117 48 146 40 291 -86 82 -71 151 -100 239 -100 103 1 176 45 248 151 27 40
48 61 67 65 62 13 93 27 127 54 46 37 80 44 171 35 105 -10 143 -45 159 -145
16 -108 48 -160 113 -181 77 -25 151 13 189 99 20 46 26 52 39 42 12 -11 13
-10 8 4 -3 9 -10 16 -16 16 -5 0 -6 16 -2 38 26 142 111 231 221 232 23 0 75
-7 115 -15 42 -9 114 -15 168 -14 86 1 96 4 113 25 14 18 29 24 60 25 l42 1
-65 19 c-52 16 -82 19 -152 15 -58 -4 -114 -1 -165 9 -157 30 -229 15 -312
-65 -54 -52 -78 -104 -102 -212 -24 -112 -47 -148 -94 -148 -44 0 -70 33 -79
102 -11 84 -25 125 -52 158 -39 45 -110 91 -173 111 -82 26 -40 36 64 15 46
-9 93 -16 105 -16 11 0 52 -16 91 -36 39 -19 76 -33 82 -31 6 2 -9 24 -32 50
l-44 47 64 0 c92 0 178 16 245 46 42 18 94 30 179 39 66 8 140 21 164 29 28
10 78 16 140 16 100 0 110 13 19 25 -26 4 -48 9 -48 11 0 2 20 24 45 47 44 43
60 87 31 87 -17 0 -26 21 -27 63 -1 31 -2 30 -15 -12 -33 -105 -123 -156 -314
-176 -86 -9 -139 -19 -166 -33 -69 -35 -244 -74 -244 -54 0 4 11 24 25 44 41
61 29 63 -37 7 -96 -79 -130 -92 -220 -78 -105 16 -103 15 -63 50 20 18 34 33
32 36 -2 2 -52 -19 -110 -46 -58 -27 -123 -55 -144 -60 -52 -15 -135 -13 -213
4 -88 19 -132 18 -220 -6 -159 -43 -264 -34 -432 37 -41 17 -73 24 -101 22
l-42 -4 53 -24 c28 -13 52 -26 52 -29 0 -7 -178 -6 -185 0 -5 5 134 118 207
170 26 18 50 30 53 27 3 -2 -2 -19 -10 -36 -14 -27 -14 -35 -1 -66 16 -39 52
-64 69 -47 7 7 3 13 -15 20 -44 17 -45 56 -1 119 12 19 21 38 18 42 -9 14 198
139 316 190 182 80 249 94 372 75 53 -8 66 -20 45 -42 -13 -13 -21 -12 -65 2
-40 13 -58 14 -91 6 -75 -21 -68 -36 15 -36 87 0 106 -14 117 -89 4 -24 13
-49 20 -55 11 -9 15 0 20 45 9 82 28 111 79 125 99 26 198 -13 317 -126 86
-82 126 -98 177 -71 38 19 80 69 116 135 20 38 37 55 60 64 18 6 34 11 37 10
3 -1 14 -4 25 -8 15 -5 12 0 -10 20 -30 25 -30 26 -10 41 15 11 33 13 70 9
l50 -6 -22 20 c-50 42 -9 60 95 41 102 -19 162 -45 230 -100 l61 -49 -1 34
c-1 19 1 38 4 41 3 2 22 -10 42 -29 59 -56 41 -22 -23 42 -98 98 -193 134
-434 166 -107 14 -397 18 -537 8z m430 -86 c0 -2 -21 -25 -48 -53 -26 -27 -64
-82 -86 -123 -42 -80 -67 -111 -92 -111 -8 0 -50 33 -92 73 -82 78 -171 129
-287 163 -54 15 -57 18 -35 25 51 17 191 26 413 28 125 0 227 0 227 -2z m-963
-688 c27 -6 61 -14 78 -18 16 -4 62 -3 102 2 89 11 128 1 68 -17 -22 -7 -58
-24 -80 -38 -23 -14 -63 -32 -90 -40 -43 -12 -58 -24 -124 -102 -92 -110 -138
-135 -213 -117 -58 13 -104 41 -189 116 -123 109 -184 124 -303 76 -88 -35
-117 -37 -198 -15 -69 20 -71 29 -25 99 24 36 38 49 52 47 11 -2 44 -6 73 -9
60 -6 71 -16 46 -44 -29 -32 -11 -31 54 2 56 29 67 32 174 33 124 1 132 -1
211 -66 52 -44 57 -41 28 14 l-20 36 22 6 c12 3 36 6 52 6 17 1 55 9 85 20 65
21 131 24 197 9z"/>
<path d="M6290 4691 c0 -5 13 -14 30 -19 16 -6 56 -29 89 -51 80 -55 111 -55
151 1 43 59 38 83 -6 31 -43 -52 -69 -55 -130 -12 -68 46 -134 71 -134 50z"/>
<path d="M5320 3933 c0 -12 121 -129 147 -142 30 -15 79 -14 111 3 25 13 94
88 117 126 5 8 -10 -1 -34 -20 -122 -100 -141 -102 -236 -30 -74 56 -105 74
-105 63z"/>
<path d="M5700 4806 c-82 -19 -127 -35 -212 -77 -70 -35 -154 -96 -145 -105 2
-2 46 16 98 40 52 24 155 65 229 91 74 26 139 51 145 56 13 12 -48 10 -115 -5z"/>
<path d="M9841 4738 c-10 -33 -10 -43 4 -64 8 -13 20 -24 25 -24 17 0 11 17
-7 25 -17 6 -17 7 -1 19 19 14 21 73 3 80 -7 2 -17 -12 -24 -36z"/>
<path d="M9800 4760 c-8 -5 -10 -10 -5 -10 6 0 17 5 25 10 8 5 11 10 5 10 -5
0 -17 -5 -25 -10z"/>
<path d="M4481 4743 c-45 -19 -34 -26 14 -10 21 8 34 16 29 19 -5 3 -24 -1
-43 -9z"/>
<path d="M5174 4727 c-3 -9 -4 -26 -2 -38 l3 -23 17 26 c15 23 15 28 3 38 -12
10 -16 9 -21 -3z"/>
<path d="M7400 4730 c0 -5 5 -10 10 -10 6 0 10 5 10 10 0 6 -4 10 -10 10 -5 0
-10 -4 -10 -10z"/>
<path d="M4380 4720 c0 -5 5 -10 10 -10 6 0 10 5 10 10 0 6 -4 10 -10 10 -5 0
-10 -4 -10 -10z"/>
<path d="M675 4702 c-21 -11 -25 -17 -15 -20 8 -3 18 -10 22 -16 4 -6 11 2 18
18 6 16 9 30 8 31 -2 1 -16 -5 -33 -13z"/>
<path d="M3480 4709 c-12 -8 -12 -12 -2 -16 20 -8 52 -44 69 -78 24 -47 44
-65 72 -64 26 0 26 0 4 9 -13 5 -23 14 -23 20 0 31 -44 108 -69 123 -34 20
-32 20 -51 6z"/>
<path d="M4310 4710 c-13 -8 -13 -10 2 -10 9 0 20 5 23 10 8 13 -5 13 -25 0z"/>
<path d="M821 4664 c0 -11 3 -14 6 -6 3 7 2 16 -1 19 -3 4 -6 -2 -5 -13z"/>
<path d="M710 4645 c0 -14 5 -25 10 -25 6 0 10 11 10 25 0 14 -4 25 -10 25 -5
0 -10 -11 -10 -25z"/>
<path d="M6968 4620 c-10 -30 -15 -57 -12 -60 3 -2 18 10 32 28 29 35 53 39
92 17 32 -18 50 -19 50 -1 0 28 -100 60 -115 36 -11 -17 -23 -11 -27 13 -3 16
-8 7 -20 -33z"/>
<path d="M9719 4637 c-7 -15 -19 -27 -27 -27 -10 0 -13 -8 -10 -30 3 -16 1
-30 -3 -30 -3 0 -9 -9 -12 -21 -4 -15 -2 -19 8 -15 8 3 17 1 20 -4 11 -18 35
3 35 31 0 31 23 40 37 15 11 -18 77 -25 91 -9 17 17 15 43 -3 43 -8 0 -19 -9
-25 -20 -11 -21 -40 -28 -40 -10 0 6 -7 10 -15 10 -17 0 -39 36 -32 54 3 7 1
19 -3 26 -7 11 -12 7 -21 -13z"/>
<path d="M807 4633 c-12 -11 -8 -23 8 -23 8 0 15 7 15 15 0 16 -12 20 -23 8z"/>
<path d="M9861 4624 c0 -11 3 -14 6 -6 3 7 2 16 -1 19 -3 4 -6 -2 -5 -13z"/>
<path d="M650 4620 c0 -5 5 -10 10 -10 6 0 10 5 10 10 0 6 -4 10 -10 10 -5 0
-10 -4 -10 -10z"/>
<path d="M3422 4578 c5 -15 28 -18 29 -3 0 6 -7 12 -17 13 -10 3 -15 -1 -12
-10z"/>
<path d="M6813 4511 c-1 -60 5 -73 25 -48 23 28 23 55 0 82 l-23 27 -2 -61z"/>
<path d="M5050 4524 c-30 -19 -83 -61 -119 -93 -37 -31 -104 -84 -150 -116
-62 -45 -89 -71 -104 -102 -27 -55 -14 -67 23 -21 17 20 63 58 102 84 63 41
327 284 309 284 -4 0 -31 -16 -61 -36z"/>
<path d="M3361 4493 c13 -69 17 -77 43 -102 27 -25 180 -63 215 -54 21 5 20 7
-9 24 -17 11 -37 19 -44 19 -7 0 -25 9 -40 21 -24 19 -53 18 -41 -2 12 -18
-14 -8 -45 17 -17 15 -42 49 -56 75 -13 27 -26 49 -28 49 -2 0 1 -21 5 -47z"/>
<path d="M5122 4515 c0 -16 2 -22 5 -12 2 9 2 23 0 30 -3 6 -5 -1 -5 -18z"/>
<path d="M7128 4453 c-18 -38 -34 -72 -37 -78 -2 -5 8 1 22 15 15 14 27 30 27
36 0 6 18 27 40 47 22 19 40 38 40 41 0 3 -14 6 -30 6 -28 0 -34 -6 -62 -67z"/>
<path d="M3740 4481 c-14 -27 -13 -44 5 -67 13 -18 14 -16 9 16 -7 48 8 69 37
52 22 -14 35 -10 24 7 -11 19 -63 13 -75 -8z"/>
<path d="M6170 4488 c1 -12 97 -64 104 -57 2 2 0 14 -5 27 -13 34 -100 60 -99
30z"/>
<path d="M685 4480 c3 -5 8 -10 11 -10 2 0 4 5 4 10 0 6 -5 10 -11 10 -5 0 -7
-4 -4 -10z"/>
<path d="M791 4480 c0 -8 4 -22 9 -30 12 -18 12 -2 0 25 -6 13 -9 15 -9 5z"/>
<path d="M9686 4482 c-3 -5 1 -15 9 -22 16 -14 20 -3 6 19 -5 8 -11 9 -15 3z"/>
<path d="M4252 4473 c-17 -7 -5 -23 17 -23 33 0 71 -41 111 -121 36 -70 45
-81 90 -104 27 -14 64 -25 82 -24 l33 1 -35 10 c-45 12 -95 61 -126 120 -32
63 -82 118 -121 134 -18 8 -34 14 -35 13 -2 0 -9 -3 -16 -6z"/>
<path d="M5463 4470 c-24 -10 -57 -65 -48 -80 11 -18 32 -11 50 16 9 14 30 31
47 39 30 12 31 13 10 24 -24 13 -29 13 -59 1z"/>
<path d="M5608 4457 c-3 -19 -2 -25 4 -19 6 6 8 18 6 28 -3 14 -5 12 -10 -9z"/>
<path d="M9660 4461 c0 -12 5 -21 10 -21 6 0 10 6 10 14 0 8 -4 18 -10 21 -5
3 -10 -3 -10 -14z"/>
<path d="M6020 4460 c0 -5 9 -14 20 -20 11 -6 20 -7 20 -3 0 5 -9 14 -20 21
-11 7 -20 8 -20 2z"/>
<path d="M3560 4450 c0 -5 5 -10 10 -10 6 0 10 5 10 10 0 6 -4 10 -10 10 -5 0
-10 -4 -10 -10z"/>
<path d="M5121 4444 c0 -11 3 -14 6 -6 3 7 2 16 -1 19 -3 4 -6 -2 -5 -13z"/>
<path d="M710 4440 c0 -5 5 -10 11 -10 5 0 7 5 4 10 -3 6 -8 10 -11 10 -2 0
-4 -4 -4 -10z"/>
<path d="M7008 4394 c-12 -20 -35 -42 -52 -50 l-31 -13 46 -1 c51 0 66 11 75
57 9 46 -13 50 -38 7z"/>
<path d="M845 4411 c-3 -5 -1 -12 5 -16 5 -3 10 1 10 9 0 18 -6 21 -15 7z"/>
<path d="M6047 4413 c-11 -10 -8 -43 3 -43 6 0 10 4 10 9 0 5 3 16 6 25 6 16
-7 22 -19 9z"/>
<path d="M9670 4385 c0 -15 18 -40 24 -34 3 3 -1 14 -9 25 -8 10 -14 15 -15 9z"/>
<path d="M707 4366 c-6 -16 2 -28 14 -20 12 7 11 34 0 34 -5 0 -11 -6 -14 -14z"/>
<path d="M6062 4335 c-7 -15 -11 -30 -8 -32 7 -7 28 36 24 49 -2 6 -9 -2 -16
-17z"/>
<path d="M6283 4343 c-7 -2 -13 -9 -13 -15 0 -14 43 -6 48 10 4 12 -12 15 -35
5z"/>
<path d="M6724 4339 c-18 -9 -54 -57 -54 -73 0 -17 37 -2 71 29 22 19 46 35
54 35 8 0 15 5 15 10 0 13 -59 12 -86 -1z"/>
<path d="M855 4331 c-3 -5 -1 -12 5 -16 5 -3 10 1 10 9 0 18 -6 21 -15 7z"/>
<path d="M5937 4333 c-4 -3 -7 -11 -7 -17 0 -6 5 -5 12 2 6 6 9 14 7 17 -3 3
-9 2 -12 -2z"/>
<path d="M3726 4301 c-27 -30 -16 -47 14 -23 18 15 22 24 14 32 -7 7 -15 5
-28 -9z"/>
<path d="M9665 4299 c-11 -17 1 -21 15 -4 8 9 8 15 2 15 -6 0 -14 -5 -17 -11z"/>
<path d="M815 4275 c-18 -8 -23 -14 -13 -14 25 -1 33 -22 14 -33 -13 -7 -16
-18 -11 -46 3 -20 7 -38 9 -40 9 -8 28 41 29 76 1 20 6 40 12 44 22 16 -10 26
-40 13z"/>
<path d="M5950 4253 c-59 -32 -71 -34 -128 -30 -52 4 -61 3 -51 -9 17 -21 84
-36 125 -28 32 6 123 72 132 95 5 14 -8 9 -78 -28z"/>
<path d="M706 4248 c-11 -43 -7 -68 12 -67 9 0 12 3 6 5 -8 3 -10 20 -7 44 6
43 -1 54 -11 18z"/>
<path d="M5565 4235 c-51 -30 -69 -35 -124 -35 -59 0 -63 -1 -45 -15 23 -18
130 -19 160 -2 32 19 94 71 94 80 0 14 -26 6 -85 -28z"/>
<path d="M3245 4240 c-3 -5 -1 -10 4 -10 6 0 11 5 11 10 0 6 -2 10 -4 10 -3 0
-8 -4 -11 -10z"/>
<path d="M9785 4240 c3 -5 11 -10 16 -10 6 0 7 5 4 10 -3 6 -11 10 -16 10 -6
0 -7 -4 -4 -10z"/>
<path d="M9745 4200 c3 -5 8 -10 11 -10 2 0 4 5 4 10 0 6 -5 10 -11 10 -5 0
-7 -4 -4 -10z"/>
<path d="M9740 4158 c0 -15 5 -30 11 -33 19 -12 21 2 5 32 l-15 28 -1 -27z"/>
<path d="M7177 4162 c-14 -6 1 -12 50 -20 37 -7 86 -18 109 -23 23 -6 52 -9
65 -7 17 2 4 10 -46 25 -83 26 -153 35 -178 25z"/>
<path d="M895 4130 c3 -5 8 -10 11 -10 2 0 4 5 4 10 0 6 -5 10 -11 10 -5 0 -7
-4 -4 -10z"/>
<path d="M3227 4105 c-51 -19 -116 -64 -140 -97 -35 -48 -10 -42 50 10 32 28
80 61 106 72 70 31 59 42 -16 15z"/>
<path d="M3665 4109 c-4 -6 -5 -13 -2 -16 7 -7 27 6 27 18 0 12 -17 12 -25 -2z"/>
<path d="M4635 4109 c-50 -138 -70 -238 -81 -409 -8 -136 3 -142 16 -9 11 101
53 333 71 387 10 32 5 60 -6 31z"/>
<path d="M890 4099 c0 -5 5 -7 10 -4 6 3 10 8 10 11 0 2 -4 4 -10 4 -5 0 -10
-5 -10 -11z"/>
<path d="M3313 4069 c-55 -16 -37 -20 51 -13 82 6 86 6 116 -20 17 -14 37 -26
44 -26 7 0 19 -12 26 -27 8 -18 14 -23 17 -15 7 18 -51 77 -93 97 -35 17 -111
18 -161 4z"/>
<path d="M8755 4028 c5 -26 4 -38 -4 -38 -6 0 -11 -7 -11 -15 0 -17 -16 -20
-25 -5 -4 6 -11 7 -17 4 -7 -4 -5 -10 6 -16 9 -5 16 -16 16 -23 0 -8 5 -15 10
-15 6 0 10 -5 10 -11 0 -13 30 -38 45 -39 6 0 9 17 7 40 -4 38 -19 58 -18 23
2 -33 -17 -28 -20 5 -3 22 0 32 10 32 11 0 12 8 4 42 -12 53 -22 66 -13 16z"/>
<path d="M9680 4017 c0 -13 -5 -28 -12 -35 -9 -9 -8 -12 4 -12 9 0 25 -3 35
-7 17 -6 17 -5 1 13 -11 12 -15 28 -11 42 3 13 1 22 -6 22 -6 0 -11 -10 -11
-23z"/>
<path d="M1741 4014 c0 -11 3 -14 6 -6 3 7 2 16 -1 19 -3 4 -6 -2 -5 -13z"/>
<path d="M3314 4006 c-12 -9 1 -11 55 -8 55 3 77 0 97 -13 15 -9 23 -12 20 -6
-22 35 -136 53 -172 27z"/>
<path d="M9590 4010 c0 -5 5 -10 11 -10 5 0 7 5 4 10 -3 6 -8 10 -11 10 -2 0
-4 -4 -4 -10z"/>
<path d="M6820 3983 c-40 -7 -90 -24 -90 -31 0 -4 31 -6 70 -6 70 1 134 19
124 35 -5 9 -57 10 -104 2z"/>
<path d="M9583 3973 c3 -13 1 -23 -4 -23 -5 0 -9 -4 -9 -10 0 -16 17 -12 24 6
3 9 1 23 -5 32 -9 14 -10 14 -6 -5z"/>
<path d="M3500 3941 c5 -11 15 -23 20 -26 14 -9 12 19 -2 33 -19 19 -30 14
-18 -7z"/>
<path d="M2540 3935 c0 -8 5 -15 10 -15 6 0 10 7 10 15 0 8 -4 15 -10 15 -5 0
-10 -7 -10 -15z"/>
<path d="M3580 3942 c0 -5 7 -15 15 -22 8 -7 15 -8 15 -2 0 5 -7 15 -15 22 -8
7 -15 8 -15 2z"/>
<path d="M7141 3909 c-28 -94 -83 -182 -168 -266 -107 -107 -112 -128 -17 -73
100 57 172 166 194 293 14 80 9 107 -9 46z"/>
<path d="M9686 3925 c-4 -14 -2 -33 2 -43 5 -9 7 -23 5 -29 -3 -8 4 -13 16
-13 25 0 25 1 8 43 -8 18 -12 37 -10 44 2 6 0 14 -5 17 -6 3 -13 -5 -16 -19z"/>
<path d="M9600 3923 c0 -10 -3 -29 -7 -42 -4 -17 -3 -22 5 -17 8 5 12 -1 12
-16 l0 -22 22 22 c12 12 19 25 14 29 -4 4 -11 1 -17 -7 -6 -10 -7 -1 -4 28 4
33 2 42 -10 42 -8 0 -15 -8 -15 -17z"/>
<path d="M3374 3915 c4 -10 11 -38 16 -61 25 -109 49 -151 128 -224 58 -53 81
-69 96 -64 15 4 17 3 8 -4 -14 -9 25 -31 130 -73 53 -21 71 -24 48 -9 -28 19
8 28 63 16 l52 -11 -37 -3 c-21 -2 -38 -7 -38 -12 0 -12 84 -24 113 -16 14 3
32 -1 43 -9 21 -16 84 -20 84 -6 0 11 -68 34 -165 56 -134 30 -267 86 -334
140 -79 63 -190 222 -191 272 0 6 -5 15 -12 19 -8 5 -9 2 -4 -11z m359 -392
c-7 -2 -19 -2 -25 0 -7 3 -2 5 12 5 14 0 19 -2 13 -5z"/>
<path d="M9544 3894 c-3 -12 -1 -31 5 -42 16 -31 14 -39 -16 -50 -19 -7 -22
-11 -10 -11 33 -2 50 -30 49 -79 0 -26 5 -53 10 -60 8 -9 6 -16 -7 -26 -17
-12 -17 -13 4 -19 16 -4 21 -1 21 14 0 10 5 19 10 19 16 0 12 -37 -5 -44 -8
-3 -15 -12 -15 -21 0 -17 16 -20 25 -5 4 6 10 8 14 5 10 -6 9 58 -2 66 -4 3
-8 27 -9 53 -1 26 -8 52 -15 58 -16 13 -17 40 -2 55 9 9 6 19 -10 39 -14 18
-20 36 -17 49 4 15 1 22 -9 22 -9 0 -18 -10 -21 -23z"/>
<path d="M3546 3875 c9 -13 24 -27 35 -30 10 -3 28 -8 39 -11 11 -3 20 -1 20
4 0 5 -16 13 -35 16 -19 4 -39 16 -45 26 -6 11 -15 20 -21 20 -5 0 -2 -11 7
-25z"/>
<path d="M6272 3850 c0 -14 2 -19 5 -12 2 6 2 18 0 25 -3 6 -5 1 -5 -13z"/>
<path d="M6987 3838 c-4 -16 -12 -28 -18 -28 -6 0 -8 -8 -4 -19 3 -10 1 -31
-5 -46 -7 -19 -7 -32 -1 -38 17 -17 42 58 39 111 -3 42 -4 44 -11 20z"/>
<path d="M1870 3840 c0 -5 5 -10 11 -10 5 0 7 5 4 10 -3 6 -8 10 -11 10 -2 0
-4 -4 -4 -10z"/>
<path d="M8790 3835 c7 -8 16 -15 21 -15 5 0 6 7 3 15 -4 8 -13 15 -21 15 -13
0 -13 -3 -3 -15z"/>
<path d="M9525 3829 c-4 -6 -5 -12 -2 -15 2 -3 7 2 10 11 7 17 1 20 -8 4z"/>
<path d="M9640 3825 c-7 -9 -10 -19 -6 -22 4 -4 12 -1 17 7 8 12 10 10 6 -7
-3 -13 -1 -23 4 -23 5 0 9 -9 9 -20 0 -21 15 -27 25 -10 3 6 0 10 -7 10 -7 1
-3 9 11 21 23 19 23 20 6 39 -22 24 -48 26 -65 5z"/>
<path d="M1498 3793 c6 -2 18 -2 25 0 6 3 1 5 -13 5 -14 0 -19 -2 -12 -5z"/>
<path d="M1655 3790 c3 -5 8 -10 11 -10 2 0 4 5 4 10 0 6 -5 10 -11 10 -5 0
-7 -4 -4 -10z"/>
<path d="M8966 3781 c-3 -5 1 -14 9 -21 12 -10 15 -10 15 3 0 19 -16 31 -24
18z"/>
<path d="M6846 3758 c-2 -7 -10 -35 -16 -63 -7 -27 -34 -87 -61 -131 -46 -77
-59 -114 -41 -114 34 0 85 91 118 208 27 98 28 112 14 112 -6 0 -12 -6 -14
-12z"/>
<path d="M8943 3743 c0 -18 5 -29 9 -25 5 5 4 19 -1 33 -10 23 -10 22 -8 -8z"/>
<path d="M9500 3763 c0 -5 9 -23 20 -41 12 -20 18 -42 15 -53 -9 -28 4 -23 15
5 10 28 -16 96 -37 96 -7 0 -13 -3 -13 -7z"/>
<path d="M6020 3706 c0 -13 -3 -33 -6 -43 -4 -14 -1 -13 15 6 24 27 28 61 6
61 -9 0 -15 -9 -15 -24z"/>
<path d="M6692 3694 c-12 -19 -27 -32 -31 -29 -12 7 -21 -20 -21 -65 0 -49 24
-66 67 -48 l28 12 -27 4 c-33 4 -33 3 -7 71 27 72 22 103 -9 55z"/>
<path d="M2706 3707 c3 -10 9 -15 12 -12 3 3 0 11 -7 18 -10 9 -11 8 -5 -6z"/>
<path d="M9650 3700 c0 -24 15 -27 24 -4 9 22 8 24 -9 24 -8 0 -15 -9 -15 -20z"/>
<path d="M1870 3699 c0 -5 5 -7 10 -4 6 3 10 8 10 11 0 2 -4 4 -10 4 -5 0 -10
-5 -10 -11z"/>
<path d="M9500 3700 c0 -5 5 -10 10 -10 6 0 10 5 10 10 0 6 -4 10 -10 10 -5 0
-10 -4 -10 -10z"/>
<path d="M1660 3651 c0 -5 5 -13 10 -16 6 -3 10 -2 10 4 0 5 -4 13 -10 16 -5
3 -10 2 -10 -4z"/>
<path d="M4774 3635 c-5 -16 -9 -73 -9 -125 1 -73 6 -106 22 -145 l21 -50 -5
145 c-3 80 -8 159 -13 175 l-7 30 -9 -30z"/>
<path d="M9465 3630 c3 -5 8 -10 11 -10 2 0 4 5 4 10 0 6 -5 10 -11 10 -5 0
-7 -4 -4 -10z"/>
<path d="M5180 3595 c0 -8 4 -15 10 -15 5 0 7 7 4 15 -4 8 -8 15 -10 15 -2 0
-4 -7 -4 -15z"/>
<path d="M1980 3586 c0 -8 4 -17 9 -20 5 -4 7 3 4 14 -6 23 -13 26 -13 6z"/>
<path d="M1940 3551 c0 -6 5 -11 11 -11 5 0 7 -4 4 -10 -3 -5 -1 -10 4 -10 16
0 13 16 -4 30 -10 9 -15 9 -15 1z"/>
<path d="M9562 3551 c-13 -8 -6 -41 8 -41 12 0 22 32 13 41 -5 5 -14 5 -21 0z"/>
<path d="M6571 3534 c0 -11 3 -14 6 -6 3 7 2 16 -1 19 -3 4 -6 -2 -5 -13z"/>
<path d="M7732 3530 c0 -14 2 -19 5 -12 2 6 2 18 0 25 -3 6 -5 1 -5 -13z"/>
<path d="M1980 3530 c0 -5 5 -10 11 -10 5 0 7 5 4 10 -3 6 -8 10 -11 10 -2 0
-4 -4 -4 -10z"/>
<path d="M5917 3533 c-4 -3 -7 -16 -6 -27 0 -19 1 -19 10 3 10 24 8 36 -4 24z"/>
<path d="M1930 3515 c0 -19 17 -28 34 -18 12 6 10 10 -10 20 -19 9 -24 8 -24
-2z"/>
<path d="M5846 3515 c-3 -8 -1 -15 3 -15 5 0 11 7 15 15 3 8 1 15 -3 15 -5 0
-11 -7 -15 -15z"/>
<path d="M9420 3526 c0 -2 7 -7 16 -10 8 -3 12 -2 9 4 -6 10 -25 14 -25 6z"/>
<path d="M7760 3486 c0 -19 -3 -41 -6 -50 -5 -12 0 -16 17 -16 18 0 20 3 11
12 -16 16 -15 23 4 42 14 14 14 18 0 31 -22 22 -26 19 -26 -19z"/>
<path d="M8833 3501 c-33 -16 -47 -38 -17 -27 9 3 27 9 40 12 24 6 31 19 17
27 -5 2 -23 -3 -40 -12z"/>
<path d="M6537 3474 c-32 -27 -47 -30 -47 -10 0 9 -7 12 -21 9 -15 -4 -19 -12
-16 -27 4 -16 -5 -28 -36 -51 -42 -31 -60 -65 -35 -65 7 0 19 9 26 20 6 11 38
33 70 49 75 38 102 62 94 83 -6 15 -10 14 -35 -8z"/>
<path d="M6653 3475 c-12 -14 -23 -33 -25 -43 -2 -9 -13 -18 -25 -20 -13 -2
-23 -12 -26 -28 -3 -19 -1 -24 10 -20 8 3 23 6 34 6 10 0 19 7 19 15 0 8 5 15
10 15 6 0 10 6 10 13 0 8 9 24 20 37 20 24 22 41 4 47 -5 1 -19 -9 -31 -22z"/>
<path d="M8860 3455 c-14 -16 -3 -20 19 -6 8 5 9 11 3 15 -5 3 -15 -1 -22 -9z"/>
<path d="M9590 3452 c0 -12 -4 -22 -10 -22 -5 0 -10 5 -10 10 0 18 -17 10 -30
-15 -7 -14 -19 -25 -27 -25 -7 0 -13 -4 -13 -10 0 -5 6 -7 14 -4 8 3 17 1 21
-5 12 -20 37 -13 30 9 -4 14 -2 20 9 20 16 0 34 46 22 57 -3 4 -6 -3 -6 -15z"/>
<path d="M5826 3435 c-4 -14 -4 -30 -1 -35 10 -16 -28 -27 -115 -34 -147 -12
-140 -21 20 -26 163 -5 255 3 436 41 97 20 134 33 124 43 -3 2 -99 -7 -215
-20 -115 -13 -216 -24 -223 -24 -9 0 -12 12 -9 40 4 44 -7 54 -17 15z"/>
<path d="M5911 3434 c0 -11 3 -14 6 -6 3 7 2 16 -1 19 -3 4 -6 -2 -5 -13z"/>
<path d="M6535 3411 c-3 -5 -1 -12 5 -16 5 -3 10 1 10 9 0 18 -6 21 -15 7z"/>
<path d="M7671 3374 c0 -11 3 -14 6 -6 3 7 2 16 -1 19 -3 4 -6 -2 -5 -13z"/>
<path d="M9400 3370 c0 -5 5 -10 11 -10 5 0 7 5 4 10 -3 6 -8 10 -11 10 -2 0
-4 -4 -4 -10z"/>
<path d="M1150 3361 c0 -6 4 -13 10 -16 6 -3 7 1 4 9 -7 18 -14 21 -14 7z"/>
<path d="M9350 3340 c0 -10 -4 -22 -10 -25 -17 -11 -11 -25 8 -18 14 6 15 4 4
-9 -7 -8 -10 -22 -7 -30 5 -12 0 -14 -19 -11 -14 3 -26 1 -26 -5 0 -5 16 -12
35 -14 24 -3 35 0 35 9 0 19 17 16 29 -4 12 -22 -10 -62 -50 -89 -16 -10 -29
-24 -29 -31 0 -6 -5 -15 -12 -19 -6 -4 -8 -3 -5 3 4 6 0 14 -9 17 -13 5 -14 1
-10 -22 3 -15 2 -33 -3 -41 -5 -8 -7 -20 -4 -28 6 -15 23 -18 23 -4 0 18 98
112 105 102 3 -6 1 -11 -4 -11 -14 0 -14 -47 -1 -55 6 -4 10 5 10 19 0 14 6
26 13 27 18 0 60 57 54 73 -3 8 0 17 7 19 9 4 13 21 12 51 -3 52 -14 71 -23
38 -4 -18 -8 -20 -20 -11 -11 10 -15 8 -20 -10 -7 -28 -25 -22 -30 10 -9 57
-53 116 -53 69z m100 -166 c11 -28 6 -44 -15 -44 -17 0 -23 17 -17 47 6 30 20
29 32 -3z"/>
<path d="M9520 3350 c0 -5 10 -10 23 -10 18 0 19 2 7 10 -19 13 -30 13 -30 0z"/>
<path d="M7618 3338 c-17 -13 -22 -28 -19 -63 1 -13 7 -7 16 19 7 21 20 43 27
47 7 5 8 9 2 9 -5 0 -17 -6 -26 -12z"/>
<path d="M5862 3308 c-16 -16 -15 -28 3 -28 8 0 15 9 15 20 0 23 -2 24 -18 8z"/>
<path d="M4421 3224 c0 -11 3 -14 6 -6 3 7 2 16 -1 19 -3 4 -6 -2 -5 -13z"/>
<path d="M7560 3222 c0 -10 21 -32 32 -32 16 0 8 19 -12 30 -11 6 -20 7 -20 2z"/>
<path d="M7620 3215 c0 -8 4 -15 10 -15 5 0 7 7 4 15 -4 8 -8 15 -10 15 -2 0
-4 -7 -4 -15z"/>
<path d="M9284 3185 c-3 -19 -10 -35 -15 -35 -5 0 -9 -4 -9 -10 0 -5 8 -10 18
-10 13 0 17 9 18 45 1 54 -3 57 -12 10z"/>
<path d="M1165 3200 c3 -5 10 -10 16 -10 5 0 9 5 9 10 0 6 -7 10 -16 10 -8 0
-12 -4 -9 -10z"/>
<path d="M4621 3174 c0 -11 3 -14 6 -6 3 7 2 16 -1 19 -3 4 -6 -2 -5 -13z"/>
<path d="M2250 3081 c0 -6 4 -13 10 -16 6 -3 7 1 4 9 -7 18 -14 21 -14 7z"/>
<path d="M4558 3009 c-5 -70 -11 -97 -34 -137 -16 -28 -26 -54 -23 -57 10 -10
54 15 69 38 19 32 24 144 7 197 l-13 45 -6 -86z"/>
<path d="M9246 3004 c-3 -12 -4 -29 0 -38 3 -9 3 -16 0 -16 -4 0 -12 14 -17
30 -13 35 -29 38 -46 10 -11 -16 -10 -18 2 -14 18 7 20 -7 4 -23 -7 -7 -8 -19
-4 -30 5 -10 7 -24 6 -30 -3 -22 9 -14 19 12 8 21 13 24 29 16 16 -9 19 -6 24
18 3 16 2 41 -2 57 -7 27 -8 27 -15 8z"/>
<path d="M9352 2970 c-24 -22 -27 -35 -12 -45 5 -3 7 -13 4 -23 -2 -9 1 -6 7
8 6 14 16 35 22 47 14 31 5 37 -21 13z"/>
<path d="M9290 2970 c0 -5 5 -10 11 -10 5 0 7 5 4 10 -3 6 -8 10 -11 10 -2 0
-4 -4 -4 -10z"/>
<path d="M2580 2955 c-16 -9 -19 -14 -9 -15 8 0 24 7 35 15 24 18 7 19 -26 0z"/>
<path d="M7844 2959 c-3 -6 -2 -14 3 -18 5 -3 15 -15 21 -26 6 -11 12 -15 12
-8 0 7 7 10 15 7 10 -4 15 0 15 11 0 12 -5 15 -20 10 -28 -9 -26 13 3 25 20 8
19 9 -10 9 -17 1 -35 -4 -39 -10z"/>
<path d="M2640 2945 c-7 -8 -17 -12 -23 -8 -6 3 -7 1 -3 -5 5 -9 12 -8 26 1
11 6 20 15 20 19 0 12 -6 10 -20 -7z"/>
<path d="M2520 2930 c-9 -6 -10 -10 -3 -10 6 0 15 5 18 10 8 12 4 12 -15 0z"/>
<path d="M8200 2912 c0 -19 22 -39 43 -39 11 0 17 8 16 21 0 12 -3 15 -6 9 -7
-19 -30 -16 -42 5 -7 11 -11 12 -11 4z"/>
<path d="M9127 2904 c-4 -4 -7 -16 -7 -26 0 -10 -5 -18 -11 -18 -8 0 -8 -4 0
-14 9 -11 8 -14 -5 -12 -27 2 -27 -20 1 -32 36 -17 60 -15 76 5 13 15 11 16
-13 9 -33 -8 -35 -2 -8 26 11 12 20 25 20 30 0 14 -20 9 -26 -7 -4 -8 -10 -15
-15 -15 -14 0 -11 28 4 33 8 3 9 8 1 16 -6 6 -13 8 -17 5z"/>
<path d="M8075 2890 c4 -6 11 -8 16 -5 14 9 11 15 -7 15 -8 0 -12 -5 -9 -10z"/>
<path d="M9270 2890 c0 -5 5 -10 11 -10 5 0 7 5 4 10 -3 6 -8 10 -11 10 -2 0
-4 -4 -4 -10z"/>
<path d="M8247 2853 c-2 -5 -7 -21 -11 -38 -6 -28 -5 -29 9 -11 8 11 15 28 15
38 0 19 -6 23 -13 11z"/>
<path d="M8197 2804 c-10 -13 -13 -24 -8 -24 10 0 36 39 29 45 -2 2 -11 -8
-21 -21z"/>
<path d="M7070 2790 c0 -5 5 -10 10 -10 6 0 10 5 10 10 0 6 -4 10 -10 10 -5 0
-10 -4 -10 -10z"/>
<path d="M8320 2758 c-10 -38 -17 -47 -51 -62 -34 -15 -38 -21 -35 -47 4 -43
13 -45 20 -4 6 31 26 51 26 25 0 -5 5 -10 10 -10 6 0 10 7 10 15 0 12 4 14 16
7 21 -11 64 -3 64 12 0 7 -5 17 -11 23 -7 7 -8 17 -1 29 9 16 10 16 20 -3 6
-11 8 -23 4 -27 -3 -4 1 -4 11 -1 28 11 15 49 -19 53 -16 2 -34 10 -41 19 -10
13 -14 9 -23 -29z"/>
<path d="M2133 2770 c4 -14 7 -31 7 -37 0 -7 4 -13 9 -13 6 0 6 12 1 31 -11
38 -26 55 -17 19z"/>
<path d="M2350 2772 c0 -5 7 -13 16 -16 10 -4 14 -1 12 6 -5 15 -28 23 -28 10z"/>
<path d="M8061 2772 c-1 -7 -5 -11 -10 -7 -5 3 -12 1 -15 -4 -9 -14 14 -25 26
-13 6 6 8 16 5 24 -4 10 -6 10 -6 0z"/>
<path d="M2085 2760 c3 -5 8 -10 11 -10 2 0 4 5 4 10 0 6 -5 10 -11 10 -5 0
-7 -4 -4 -10z"/>
<path d="M2050 2739 c0 -11 5 -17 10 -14 6 3 10 13 10 21 0 8 -4 14 -10 14 -5
0 -10 -9 -10 -21z"/>
<path d="M2520 2751 c0 -5 5 -13 10 -16 6 -3 10 -2 10 4 0 5 -4 13 -10 16 -5
3 -10 2 -10 -4z"/>
<path d="M7055 2750 c-3 -5 -1 -10 4 -10 6 0 11 5 11 10 0 6 -2 10 -4 10 -3 0
-8 -4 -11 -10z"/>
<path d="M7966 2743 c-6 -14 -5 -15 5 -6 7 7 10 15 7 18 -3 3 -9 -2 -12 -12z"/>
<path d="M8145 2750 c-7 -11 2 -30 13 -30 4 0 8 9 9 20 2 21 -11 27 -22 10z"/>
<path d="M9190 2751 c0 -5 5 -13 10 -16 6 -3 10 -2 10 4 0 5 -4 13 -10 16 -5
3 -10 2 -10 -4z"/>
<path d="M7045 2700 c4 -6 11 -8 16 -5 14 9 11 15 -7 15 -8 0 -12 -5 -9 -10z"/>
<path d="M7926 2688 c-9 -12 -16 -27 -16 -33 0 -5 8 2 18 18 10 15 22 24 27
20 4 -5 5 -2 1 5 -10 16 -12 16 -30 -10z"/>
<path d="M2249 2673 c-13 -15 -12 -15 9 -4 23 12 28 21 13 21 -5 0 -15 -7 -22
-17z"/>
<path d="M9205 2680 c-16 -7 -17 -9 -3 -9 9 -1 20 4 23 9 7 11 7 11 -20 0z"/>
<path d="M2303 2665 c-21 -11 -21 -13 -7 -33 8 -12 26 -22 39 -22 13 0 26 -6
28 -12 4 -10 6 -10 6 -1 1 7 -10 20 -24 29 -19 12 -23 20 -15 29 15 18 -1 24
-27 10z"/>
<path d="M7047 2666 c-4 -10 -5 -21 -2 -24 9 -9 17 6 13 25 -3 17 -4 17 -11
-1z"/>
<path d="M2510 2650 c0 -5 5 -10 10 -10 6 0 10 5 10 10 0 6 -4 10 -10 10 -5 0
-10 -4 -10 -10z"/>
<path d="M8137 2633 c-12 -12 -7 -22 8 -17 8 4 15 10 15 15 0 11 -14 12 -23 2z"/>
<path d="M2270 2621 c0 -6 5 -13 10 -16 6 -3 10 1 10 9 0 9 -4 16 -10 16 -5 0
-10 -4 -10 -9z"/>
<path d="M2590 2610 c0 -5 5 -10 11 -10 5 0 7 5 4 10 -3 6 -8 10 -11 10 -2 0
-4 -4 -4 -10z"/>
<path d="M7866 2605 c-4 -10 1 -15 16 -15 17 0 18 2 8 15 -7 8 -14 15 -15 15
-2 0 -5 -7 -9 -15z"/>
<path d="M8220 2580 c0 -5 5 -10 10 -10 6 0 10 5 10 10 0 6 -4 10 -10 10 -5 0
-10 -4 -10 -10z"/>
<path d="M2281 2564 c0 -11 3 -14 6 -6 3 7 2 16 -1 19 -3 4 -6 -2 -5 -13z"/>
<path d="M8216 2535 c-4 -11 -13 -14 -31 -9 -19 5 -25 2 -25 -10 0 -16 32 -38
63 -43 19 -3 24 22 5 31 -10 5 -10 7 0 12 14 6 17 34 3 34 -5 0 -11 -7 -15
-15z"/>
<path d="M9042 2538 c-7 -7 -12 -16 -12 -21 0 -5 7 -1 16 8 9 9 14 18 12 20
-2 3 -10 -1 -16 -7z"/>
<path d="M2313 2524 c-17 -18 -16 -21 5 -26 13 -4 18 0 17 13 -2 26 -8 29 -22
13z"/>
<path d="M2270 2510 c0 -5 5 -10 10 -10 6 0 10 5 10 10 0 6 -4 10 -10 10 -5 0
-10 -4 -10 -10z"/>
<path d="M2280 2446 c0 -27 4 -34 18 -32 11 2 16 10 14 25 -2 11 2 21 7 21 6
0 11 -6 11 -12 0 -9 3 -8 10 2 11 17 -4 30 -37 30 -19 0 -23 -5 -23 -34z"/>
<path d="M8226 2441 c-4 -6 -13 -8 -21 -4 -8 3 -15 1 -15 -5 0 -17 38 -21 45
-4 7 18 0 28 -9 13z"/>
<path d="M8942 2355 c0 -16 2 -22 5 -12 2 9 2 23 0 30 -3 6 -5 -1 -5 -18z"/>
<path d="M1770 2316 c0 -2 8 -10 18 -17 15 -13 16 -12 3 4 -13 16 -21 21 -21
13z"/>
<path d="M4305 2310 c3 -5 8 -10 11 -10 2 0 4 5 4 10 0 6 -5 10 -11 10 -5 0
-7 -4 -4 -10z"/>
<path d="M8888 2304 c-9 -8 9 -44 22 -44 14 0 12 13 -3 34 -7 9 -16 14 -19 10z"/>
<path d="M7140 2280 c0 -5 5 -10 11 -10 5 0 7 5 4 10 -3 6 -8 10 -11 10 -2 0
-4 -4 -4 -10z"/>
<path d="M7484 2265 c-15 -11 -16 -14 -4 -15 21 0 44 16 33 23 -6 4 -19 0 -29
-8z"/>
<path d="M7537 2261 c-4 -17 -3 -21 5 -13 5 5 8 16 6 23 -3 8 -7 3 -11 -10z"/>
<path d="M8755 2260 c10 -11 20 -18 23 -16 5 6 -23 36 -34 36 -4 0 1 -9 11
-20z"/>
<path d="M2950 2263 c0 -4 5 -15 10 -23 8 -13 10 -13 10 2 0 9 -4 20 -10 23
-5 3 -10 3 -10 -2z"/>
<path d="M5927 2242 c-2 -9 -5 -30 -5 -47 l-1 -30 19 35 c23 43 24 46 6 53 -9
4 -17 -1 -19 -11z"/>
<path d="M7142 2245 c-11 -13 -10 -15 7 -15 14 0 19 5 15 15 -7 18 -6 18 -22
0z"/>
<path d="M7185 2250 c3 -5 11 -10 16 -10 6 0 7 5 4 10 -3 6 -11 10 -16 10 -6
0 -7 -4 -4 -10z"/>
<path d="M5820 2240 c0 -5 -7 -10 -16 -10 -11 0 -15 -6 -11 -20 3 -11 1 -20
-4 -20 -5 0 -7 -11 -3 -25 4 -15 2 -25 -5 -25 -6 0 -11 -11 -11 -25 0 -18 5
-25 19 -25 25 0 37 18 22 33 -13 13 -15 28 -3 26 22 -4 28 6 28 51 0 28 -3 50
-8 50 -4 0 -8 -4 -8 -10z"/>
<path d="M8892 2241 c2 -7 7 -12 11 -12 12 1 9 15 -3 20 -7 2 -11 -2 -8 -8z"/>
<path d="M6150 2225 c0 -8 2 -15 4 -15 2 0 6 7 10 15 3 8 1 15 -4 15 -6 0 -10
-7 -10 -15z"/>
<path d="M3372 2210 c0 -14 2 -19 5 -12 2 6 2 18 0 25 -3 6 -5 1 -5 -13z"/>
<path d="M7227 2203 c-7 -39 11 -60 30 -33 12 17 12 22 -5 40 l-19 21 -6 -28z"/>
<path d="M7157 2200 c-19 -23 -22 -34 -6 -24 6 3 15 0 20 -7 14 -24 29 3 15
28 -12 23 -12 23 -29 3z"/>
<path d="M5434 2175 c-3 -14 -10 -23 -14 -20 -4 2 -5 -7 -2 -21 6 -34 24 -16
29 31 4 40 -4 47 -13 10z"/>
<path d="M5460 2191 c0 -6 5 -13 10 -16 6 -3 10 1 10 9 0 9 -4 16 -10 16 -5 0
-10 -4 -10 -9z"/>
<path d="M7380 2173 c0 -5 -4 -14 -9 -22 -8 -12 -12 -12 -26 2 -22 23 -42 22
-22 -1 12 -13 14 -26 8 -47 -4 -17 -4 -39 1 -51 8 -16 2 -38 -24 -92 -19 -40
-29 -72 -23 -72 19 0 35 23 35 50 0 14 14 45 30 69 34 50 36 59 15 67 -12 5
-13 10 -4 20 6 8 15 11 20 8 5 -3 9 4 9 15 0 11 6 21 13 23 9 2 8 8 -5 21 -10
9 -18 14 -18 10z"/>
<path d="M3185 2159 c-4 -6 -5 -12 -2 -15 2 -3 7 2 10 11 7 17 1 20 -8 4z"/>
<path d="M5665 2150 c-3 -5 -1 -10 4 -10 6 0 11 5 11 10 0 6 -2 10 -4 10 -3 0
-8 -4 -11 -10z"/>
<path d="M5700 2150 c0 -5 5 -10 11 -10 5 0 7 5 4 10 -3 6 -8 10 -11 10 -2 0
-4 -4 -4 -10z"/>
<path d="M1925 2130 c10 -11 20 -20 23 -20 3 0 -3 9 -13 20 -10 11 -20 20 -23
20 -3 0 3 -9 13 -20z"/>
<path d="M5460 2140 c0 -5 5 -10 10 -10 6 0 10 5 10 10 0 6 -4 10 -10 10 -5 0
-10 -4 -10 -10z"/>
<path d="M5896 2133 c-6 -14 -5 -15 5 -6 7 7 10 15 7 18 -3 3 -9 -2 -12 -12z"/>
<path d="M7150 2141 c0 -5 11 -8 25 -8 13 0 22 3 19 8 -3 5 -14 9 -25 9 -10 0
-19 -4 -19 -9z"/>
<path d="M5846 2115 c-3 -8 -1 -15 4 -15 13 0 22 18 11 24 -5 3 -11 -1 -15 -9z"/>
<path d="M8700 2111 c0 -6 6 -11 14 -11 7 0 24 -9 38 -19 l25 -20 0 30 c0 16
-4 29 -9 29 -5 0 -6 -5 -2 -11 6 -10 -10 -8 -53 8 -7 3 -13 0 -13 -6z"/>
<path d="M5390 2093 c0 -9 -7 -25 -17 -35 -9 -10 -11 -18 -5 -18 6 0 18 13 27
30 18 34 18 40 5 40 -5 0 -10 -8 -10 -17z"/>
<path d="M7450 2101 c0 -5 7 -11 15 -15 9 -3 15 0 15 9 0 8 -7 15 -15 15 -8 0
-15 -4 -15 -9z"/>
<path d="M4980 2070 c0 -5 5 -10 10 -10 6 0 10 5 10 10 0 6 -4 10 -10 10 -5 0
-10 -4 -10 -10z"/>
<path d="M7420 2071 c0 -5 5 -13 10 -16 6 -3 10 -2 10 4 0 5 -4 13 -10 16 -5
3 -10 2 -10 -4z"/>
<path d="M8600 2069 c0 -8 -9 -21 -20 -29 -21 -15 -28 -50 -10 -50 6 0 16 12
23 28 6 15 16 30 22 34 6 5 6 11 -3 20 -9 9 -12 9 -12 -3z"/>
<path d="M3330 2061 c0 -5 5 -13 10 -16 6 -3 10 -2 10 4 0 5 -4 13 -10 16 -5
3 -10 2 -10 -4z"/>
<path d="M7196 2051 c-4 -5 3 -7 14 -4 23 6 26 13 6 13 -8 0 -17 -4 -20 -9z"/>
<path d="M7465 2051 c-3 -5 -1 -12 5 -16 5 -3 10 1 10 9 0 18 -6 21 -15 7z"/>
<path d="M7217 2033 c-4 -3 -7 -13 -7 -22 1 -13 3 -13 11 2 11 19 8 33 -4 20z"/>
<path d="M7450 2010 c0 -5 5 -10 11 -10 5 0 7 5 4 10 -3 6 -8 10 -11 10 -2 0
-4 -4 -4 -10z"/>
<path d="M8645 2010 c-3 -5 -1 -10 4 -10 6 0 11 -9 11 -21 0 -15 -5 -19 -15
-15 -21 8 -68 -11 -63 -26 6 -18 28 -21 28 -4 0 18 8 20 30 6 19 -12 40 6 40
35 0 26 -25 52 -35 35z"/>
<path d="M7010 1929 c0 -11 4 -18 10 -14 5 3 7 12 3 20 -7 21 -13 19 -13 -6z"/>
<path d="M8526 1942 c-3 -6 -1 -14 5 -17 15 -10 25 3 12 16 -7 7 -13 7 -17 1z"/>
<path d="M1958 1921 c-10 -10 -18 -26 -18 -35 0 -13 6 -10 25 12 14 17 25 33
25 36 0 11 -15 5 -32 -13z"/>
<path d="M7387 1919 c-9 -6 -22 -7 -27 -4 -6 3 -10 2 -10 -4 0 -5 4 -12 10
-16 5 -3 7 -12 4 -20 -3 -8 0 -21 8 -29 13 -12 16 -11 26 5 7 10 19 19 27 19
8 0 15 4 15 8 0 5 -13 7 -30 4 -18 -2 -30 0 -30 7 0 6 6 8 14 5 17 -6 32 14
20 26 -5 5 -17 4 -27 -1z"/>
<path d="M7540 1921 c0 -6 5 -13 10 -16 6 -3 10 1 10 9 0 9 -4 16 -10 16 -5 0
-10 -4 -10 -9z"/>
<path d="M8390 1912 c0 -24 18 -38 31 -25 6 6 2 16 -11 28 -19 18 -20 18 -20
-3z"/>
<path d="M7180 1910 c0 -5 5 -10 11 -10 5 0 7 5 4 10 -3 6 -8 10 -11 10 -2 0
-4 -4 -4 -10z"/>
<path d="M7461 1894 c0 -11 3 -14 6 -6 3 7 2 16 -1 19 -3 4 -6 -2 -5 -13z"/>
<path d="M7517 1886 c-5 -13 0 -16 26 -15 21 1 25 3 12 6 -11 3 -23 10 -26 15
-3 5 -9 3 -12 -6z"/>
<path d="M8530 1890 c0 -5 5 -10 10 -10 6 0 10 5 10 10 0 6 -4 10 -10 10 -5 0
-10 -4 -10 -10z"/>
<path d="M1975 1880 c-3 -5 1 -10 9 -10 8 0 18 5 21 10 3 6 -1 10 -9 10 -8 0
-18 -4 -21 -10z"/>
<path d="M7216 1877 c3 -10 9 -15 12 -12 3 3 0 11 -7 18 -10 9 -11 8 -5 -6z"/>
<path d="M7271 1864 c0 -11 3 -14 6 -6 3 7 2 16 -1 19 -3 4 -6 -2 -5 -13z"/>
<path d="M8542 1859 c2 -7 10 -15 17 -17 8 -3 12 1 9 9 -2 7 -10 15 -17 17 -8
3 -12 -1 -9 -9z"/>
<path d="M8313 1847 c-3 -7 -3 -9 2 -5 4 4 14 3 21 -3 7 -6 15 -6 18 -1 3 6
-3 12 -14 15 -11 3 -23 0 -27 -6z"/>
<path d="M8455 1850 c4 -6 11 -8 16 -5 14 9 11 15 -7 15 -8 0 -12 -5 -9 -10z"/>
<path d="M4267 1843 c-4 -3 0 -15 9 -24 18 -20 20 -18 -31 -34 -8 -2 -12 -11
-9 -19 3 -8 12 -12 20 -9 8 3 14 0 14 -6 0 -6 -4 -11 -10 -11 -5 0 -10 -5 -10
-11 0 -6 8 -9 18 -7 16 3 21 17 24 81 1 29 -13 52 -25 40z"/>
<path d="M7337 1833 c-11 -10 -8 -53 3 -53 6 0 10 -9 10 -19 0 -11 -4 -23 -10
-26 -13 -8 -13 -25 -1 -25 5 0 14 21 19 46 13 61 2 101 -21 77z"/>
<path d="M7240 1814 c0 -8 5 -12 10 -9 6 3 10 10 10 16 0 5 -4 9 -10 9 -5 0
-10 -7 -10 -16z"/>
<path d="M8460 1801 c0 -10 7 -24 15 -31 16 -14 50 -6 40 9 -3 6 -12 8 -20 4
-10 -3 -15 2 -15 16 0 12 -4 21 -10 21 -5 0 -10 -8 -10 -19z"/>
<path d="M8539 1803 c-13 -16 -12 -17 4 -4 16 13 21 21 13 21 -2 0 -10 -8 -17
-17z"/>
<path d="M8280 1799 c0 -5 5 -7 10 -4 6 3 10 8 10 11 0 2 -4 4 -10 4 -5 0 -10
-5 -10 -11z"/>
<path d="M3251 1784 c0 -11 3 -14 6 -6 3 7 2 16 -1 19 -3 4 -6 -2 -5 -13z"/>
<path d="M7257 1793 c-4 -3 -7 -16 -6 -27 0 -19 1 -19 10 3 10 24 8 36 -4 24z"/>
<path d="M3897 1739 c4 -13 8 -18 11 -10 2 7 -1 18 -6 23 -8 8 -9 4 -5 -13z"/>
<path d="M8360 1721 c0 -5 5 -13 10 -16 6 -3 10 -2 10 4 0 5 -4 13 -10 16 -5
3 -10 2 -10 -4z"/>
<path d="M3895 1700 c3 -5 8 -10 11 -10 2 0 4 5 4 10 0 6 -5 10 -11 10 -5 0
-7 -4 -4 -10z"/>
<path d="M7310 1702 c0 -4 4 -13 9 -20 7 -11 9 -11 14 1 3 9 -1 18 -9 21 -8 3
-14 2 -14 -2z"/>
<path d="M3215 1670 c-4 -17 -5 -34 -2 -36 2 -3 7 10 11 27 8 42 0 50 -9 9z"/>
<path d="M4275 1690 c-3 -5 -2 -10 4 -10 5 0 13 5 16 10 3 6 2 10 -4 10 -5 0
-13 -4 -16 -10z"/>
<path d="M6551 1684 c0 -11 3 -14 6 -6 3 7 2 16 -1 19 -3 4 -6 -2 -5 -13z"/>
<path d="M4120 1679 c0 -5 5 -7 10 -4 6 3 10 8 10 11 0 2 -4 4 -10 4 -5 0 -10
-5 -10 -11z"/>
<path d="M8395 1680 c-3 -5 -1 -10 4 -10 6 0 11 5 11 10 0 6 -2 10 -4 10 -3 0
-8 -4 -11 -10z"/>
<path d="M8348 1659 c-13 -14 -14 -19 -3 -23 17 -6 36 16 27 30 -4 6 -13 4
-24 -7z"/>
<path d="M8270 1659 c0 -5 -4 -7 -10 -4 -6 3 -7 -1 -4 -10 4 -9 7 -15 8 -13 1
2 8 11 15 21 9 11 10 17 2 17 -6 0 -11 -5 -11 -11z"/>
<path d="M8216 1634 c-9 -22 3 -32 14 -14 12 19 12 30 1 30 -5 0 -12 -7 -15
-16z"/>
<path d="M4290 1625 c7 -8 17 -15 22 -15 6 0 5 7 -2 15 -7 8 -17 15 -22 15 -6
0 -5 -7 2 -15z"/>
<path d="M4144 1616 c-10 -8 -17 -17 -14 -19 3 -3 14 1 24 9 11 7 17 16 15 19
-3 3 -14 -2 -25 -9z"/>
<path d="M6233 1615 c-8 -22 6 -33 17 -15 13 20 12 30 0 30 -6 0 -13 -7 -17
-15z"/>
<path d="M8070 1604 c0 -8 5 -12 10 -9 6 4 8 11 5 16 -9 14 -15 11 -15 -7z"/>
<path d="M4348 1588 c-45 -15 -34 -36 21 -43 25 -3 29 0 27 21 -1 29 -12 34
-48 22z"/>
<path d="M6341 1574 c0 -11 3 -14 6 -6 3 7 2 16 -1 19 -3 4 -6 -2 -5 -13z"/>
<path d="M8220 1576 c0 -8 5 -18 10 -21 6 -3 10 1 10 9 0 8 -4 18 -10 21 -5 3
-10 -1 -10 -9z"/>
<path d="M4175 1570 c-4 -7 -1 -16 6 -21 17 -10 26 8 11 23 -6 6 -12 6 -17 -2z"/>
<path d="M4425 1549 c7 -53 18 -54 28 -1 6 27 4 32 -13 32 -16 0 -18 -6 -15
-31z"/>
<path d="M4466 1554 c-4 -10 -2 -22 4 -28 12 -12 17 -7 22 18 4 24 -17 32 -26
10z"/>
<path d="M4011 1534 c0 -11 3 -14 6 -6 3 7 2 16 -1 19 -3 4 -6 -2 -5 -13z"/>
<path d="M8055 1530 c3 -5 8 -10 11 -10 2 0 4 5 4 10 0 6 -5 10 -11 10 -5 0
-7 -4 -4 -10z"/>
<path d="M4365 1520 c3 -5 8 -10 11 -10 2 0 4 5 4 10 0 6 -5 10 -11 10 -5 0
-7 -4 -4 -10z"/>
<path d="M4170 1511 c0 -6 5 -13 10 -16 6 -3 10 1 10 9 0 9 -4 16 -10 16 -5 0
-10 -4 -10 -9z"/>
<path d="M7983 1494 c15 -14 25 -29 22 -35 -4 -5 -1 -9 4 -9 6 0 11 7 11 15 0
18 -35 55 -52 55 -7 0 0 -12 15 -26z"/>
<path d="M5155 1500 c-3 -5 -1 -10 4 -10 6 0 11 5 11 10 0 6 -2 10 -4 10 -3 0
-8 -4 -11 -10z"/>
<path d="M5555 1503 c-11 -3 -24 -10 -30 -15 -7 -8 -4 -9 8 -4 10 3 27 6 38 6
10 0 19 5 19 10 0 10 -3 11 -35 3z"/>
<path d="M8100 1490 c0 -4 8 -14 18 -22 15 -13 19 -13 35 4 9 10 16 18 15 19
-22 5 -68 5 -68 -1z"/>
<path d="M4200 1482 c0 -4 -10 -8 -22 -7 -33 0 -33 -19 -1 -27 31 -8 28 -10
37 20 5 13 3 22 -3 22 -6 0 -11 -4 -11 -8z"/>
<path d="M5476 1473 c-2 -10 -7 -28 -11 -40 -4 -14 -2 -23 5 -23 6 0 8 5 5 10
-3 6 -2 10 4 10 5 0 14 -8 20 -17 7 -13 9 -5 9 30 -1 47 -21 66 -32 30z"/>
<path d="M5524 1454 c3 -9 6 -18 6 -20 0 -2 5 -4 11 -4 8 0 9 4 0 13 -6 8 -8
17 -4 20 3 4 1 7 -6 7 -8 0 -11 -6 -7 -16z"/>
<path d="M4275 1445 c-22 -8 -33 -14 -25 -15 25 -4 43 1 64 16 24 17 15 16
-39 -1z"/>
<path d="M5565 1450 c-3 -6 1 -7 9 -4 18 7 21 14 7 14 -6 0 -13 -4 -16 -10z"/>
<path d="M5371 1433 c-1 -29 2 -39 12 -35 11 3 9 -12 -4 -25 -7 -7 -3 -10 15
-10 31 0 34 20 7 39 -10 7 -21 22 -24 33 -4 18 -5 18 -6 -2z"/>
<path d="M4165 1409 c-4 -12 -3 -25 2 -30 6 -6 10 1 11 21 1 35 -4 39 -13 9z"/>
<path d="M4291 1394 c0 -11 3 -14 6 -6 3 7 2 16 -1 19 -3 4 -6 -2 -5 -13z"/>
<path d="M5430 1394 c0 -8 5 -12 10 -9 6 3 10 10 10 16 0 5 -4 9 -10 9 -5 0
-10 -7 -10 -16z"/>
<path d="M4002 1384 c1 -9 9 -19 16 -22 9 -3 13 2 10 14 -1 9 -9 19 -16 22 -9
3 -13 -2 -10 -14z"/>
<path d="M3890 1352 c0 -9 40 -35 46 -29 3 2 2 12 -2 21 -6 16 -44 23 -44 8z"/>
<path d="M7650 1324 c0 -22 -26 -41 -32 -24 -2 5 -9 6 -17 1 -7 -5 -10 -14 -7
-20 20 -32 86 14 67 47 -9 15 -10 15 -11 -4z"/>
<path d="M5105 1320 c3 -5 8 -10 11 -10 2 0 4 5 4 10 0 6 -5 10 -11 10 -5 0
-7 -4 -4 -10z"/>
<path d="M4277 1279 c7 -7 15 -10 18 -7 3 3 -2 9 -12 12 -14 6 -15 5 -6 -5z"/>
<path d="M5363 1264 c-3 -8 -12 -13 -19 -10 -9 4 -14 -2 -14 -17 0 -13 -5 -28
-10 -33 -7 -7 -3 -17 13 -32 22 -21 25 -22 38 -6 13 16 12 17 -7 12 -18 -5
-21 -1 -21 20 0 14 8 35 18 46 18 19 25 36 14 36 -3 0 -8 -7 -12 -16z"/>
<path d="M7560 1266 c0 -16 -27 -29 -42 -20 -9 6 -6 -12 9 -53 4 -11 -7 -24
-52 -57 -18 -14 -18 -15 -3 -16 12 0 16 -6 12 -17 -5 -15 -3 -15 10 1 9 11 16
26 16 33 0 7 7 13 15 13 15 0 38 33 29 42 -2 3 -7 15 -9 28 -3 17 -1 19 9 11
9 -8 17 -7 28 2 13 11 13 14 -3 30 -15 13 -19 14 -19 3z"/>
<path d="M4230 1262 c0 -13 20 -28 48 -35 17 -4 22 -1 22 13 0 13 -5 17 -20
13 -11 -3 -27 0 -35 7 -8 7 -15 8 -15 2z"/>
<path d="M7615 1250 c-3 -5 -2 -10 4 -10 5 0 13 5 16 10 3 6 2 10 -4 10 -5 0
-13 -4 -16 -10z"/>
<path d="M7770 1220 c0 -5 5 -10 10 -10 6 0 10 5 10 10 0 6 -4 10 -10 10 -5 0
-10 -4 -10 -10z"/>
<path d="M5236 1211 c-3 -4 6 -6 19 -3 14 2 25 6 25 8 0 8 -39 4 -44 -5z"/>
<path d="M7457 1182 c-16 -8 -25 -18 -20 -22 12 -12 63 0 63 16 0 20 -12 22
-43 6z"/>
<path d="M7645 1189 c-4 -6 -5 -12 -2 -15 2 -3 7 2 10 11 7 17 1 20 -8 4z"/>
<path d="M7392 1170 c1 -14 -6 -42 -16 -62 -10 -20 -15 -41 -12 -46 3 -5 1
-24 -5 -41 -6 -18 -9 -35 -5 -38 3 -3 11 8 17 26 9 26 14 30 26 19 23 -19 66
-15 85 7 16 18 17 19 18 2 0 -10 5 -15 10 -12 6 4 3 15 -7 29 -17 23 -18 23
-31 5 -17 -25 -36 -24 -29 1 3 13 -1 21 -13 25 -12 4 -19 15 -18 33 0 15 -5
38 -10 52 l-11 25 1 -25z"/>
<path d="M3065 1150 c-3 -5 1 -10 10 -10 9 0 13 5 10 10 -3 6 -8 10 -10 10 -2
0 -7 -4 -10 -10z"/>
<path d="M5398 1153 c-10 -3 -18 -8 -18 -13 0 -13 34 -22 38 -11 2 6 8 11 14
11 6 0 7 -7 4 -15 -6 -16 13 -55 26 -55 10 0 9 49 0 70 -7 15 -33 20 -64 13z"/>
<path d="M7287 1110 c-8 -12 -20 -19 -25 -16 -6 3 -30 -18 -55 -46 -46 -53
-75 -61 -43 -12 22 33 14 42 -13 15 -11 -11 -27 -18 -34 -15 -8 3 -20 -2 -27
-11 -16 -19 2 -45 31 -45 11 0 19 -4 19 -10 0 -10 -21 -14 -47 -11 -7 1 -13
-3 -13 -8 0 -6 -7 -8 -15 -5 -8 4 -15 1 -15 -5 0 -6 5 -11 10 -11 6 0 10 -5
10 -11 0 -6 -7 -8 -16 -5 -18 7 -47 -11 -39 -24 3 -5 15 -6 27 -2 14 3 19 2
14 -6 -4 -7 -16 -12 -26 -12 -10 0 -22 -5 -26 -12 -5 -8 -2 -9 9 -5 19 7 23
-3 7 -19 -5 -5 -5 -15 -1 -23 7 -10 13 -11 30 -2 11 7 21 16 21 21 0 6 6 10
13 10 13 0 43 58 33 67 -8 9 33 63 49 63 15 0 31 -53 17 -58 -29 -9 -44 -30
-38 -50 7 -21 9 -21 38 -6 22 11 29 21 25 35 -3 10 -1 16 4 13 14 -8 89 55 88
74 -1 16 -2 16 -6 1 -2 -9 -14 -17 -26 -17 -12 0 -33 -3 -47 -7 l-25 -6 28 21
c15 12 27 30 27 40 0 10 7 17 16 16 10 0 23 14 34 40 21 48 12 79 -13 44z
m-86 -123 c-13 -13 -26 -3 -16 12 3 6 11 8 17 5 6 -4 6 -10 -1 -17z"/>
<path d="M7583 1116 c-13 -6 -23 -14 -23 -17 0 -10 39 1 46 13 9 14 2 15 -23
4z"/>
<path d="M7195 1080 c-3 -5 1 -10 9 -10 9 0 16 5 16 10 0 6 -4 10 -9 10 -6 0
-13 -4 -16 -10z"/>
<path d="M3276 1054 c-9 -22 3 -32 14 -14 12 19 12 30 1 30 -5 0 -12 -7 -15
-16z"/>
<path d="M7560 1060 c-9 -6 -10 -10 -3 -10 6 0 15 5 18 10 8 12 4 12 -15 0z"/>
<path d="M3396 1033 c-11 -11 -6 -21 12 -27 9 -3 23 -9 30 -12 6 -3 12 1 12 9
0 15 -44 40 -54 30z"/>
<path d="M3220 1009 c0 -5 5 -7 10 -4 6 3 10 8 10 11 0 2 -4 4 -10 4 -5 0 -10
-5 -10 -11z"/>
<path d="M3360 979 c0 -11 5 -17 10 -14 6 3 10 13 10 21 0 8 -4 14 -10 14 -5
0 -10 -9 -10 -21z"/>
<path d="M3452 970 c-9 -14 -9 -20 -1 -20 7 0 18 -8 25 -17 10 -15 15 -16 26
-5 11 11 10 16 -4 26 -10 7 -18 18 -18 25 0 17 -14 13 -28 -9z"/>
<path d="M3400 964 c0 -17 17 -36 24 -26 3 5 -1 15 -9 22 -8 7 -15 9 -15 4z"/>
<path d="M3260 929 c0 -5 5 -7 10 -4 6 3 10 8 10 11 0 2 -4 4 -10 4 -5 0 -10
-5 -10 -11z"/>
<path d="M3451 903 c0 -16 3 -22 6 -15 6 16 33 -3 33 -24 0 -8 9 -19 21 -26
11 -7 28 -29 37 -48 l16 -35 4 28 c2 15 8 27 13 27 5 0 9 5 9 11 0 6 -6 9 -14
6 -15 -6 -46 22 -46 41 0 7 -9 12 -20 12 -11 0 -20 5 -20 11 0 11 -24 39 -34
39 -3 0 -6 -12 -5 -27z"/>
<path d="M3406 911 c-3 -5 0 -11 8 -14 15 -6 26 1 26 15 0 11 -27 10 -34 -1z"/>
<path d="M3367 893 c-4 -3 -7 -13 -7 -21 0 -12 3 -12 15 -2 8 7 15 16 15 21 0
11 -14 12 -23 2z"/>
<path d="M3420 873 c0 -4 5 -15 10 -23 8 -13 10 -13 10 2 0 9 -4 20 -10 23 -5
3 -10 3 -10 -2z"/>
<path d="M6926 853 c-9 -23 12 -43 24 -23 5 8 10 21 10 28 0 18 -27 15 -34 -5z"/>
<path d="M3826 824 c-4 -9 -4 -19 -1 -22 2 -3 7 3 11 12 4 9 4 19 1 22 -2 3
-7 -3 -11 -12z"/>
<path d="M6969 817 c-9 -7 -19 -22 -23 -34 -6 -18 -4 -22 8 -17 9 3 16 12 16
20 0 7 7 17 16 22 9 5 13 12 8 15 -5 3 -16 0 -25 -6z"/>
<path d="M4006 807 c3 -10 9 -15 12 -12 3 3 0 11 -7 18 -10 9 -11 8 -5 -6z"/>
<path d="M3505 790 c-3 -5 -1 -10 4 -10 6 0 11 5 11 10 0 6 -2 10 -4 10 -3 0
-8 -4 -11 -10z"/>
<path d="M3712 768 c-10 -12 -10 -20 1 -41 l14 -27 11 26 c14 30 15 37 3 29
-5 -3 -11 2 -13 11 -3 15 -4 15 -16 2z"/>
<path d="M4025 760 c3 -5 8 -10 11 -10 2 0 4 5 4 10 0 6 -5 10 -11 10 -5 0 -7
-4 -4 -10z"/>
<path d="M6320 763 c0 -6 9 -21 21 -34 l20 -24 -17 30 c-24 39 -24 40 -24 28z"/>
<path d="M6850 756 c0 -23 16 -27 17 -5 1 10 -2 19 -8 19 -5 0 -9 -6 -9 -14z"/>
<path d="M4260 709 c0 -32 -4 -42 -20 -46 -11 -3 -17 -9 -14 -15 3 -5 1 -15
-6 -22 -18 -22 -3 -61 25 -64 28 -2 37 8 24 28 -6 10 -9 11 -9 3 0 -7 -7 -13
-15 -13 -23 0 -18 16 16 55 24 27 29 38 20 49 -13 15 -5 46 13 46 12 0 -14 20
-26 20 -5 0 -8 -18 -8 -41z"/>
<path d="M4324 720 c0 -11 3 -20 7 -20 10 0 19 27 12 34 -12 11 -19 6 -19 -14z"/>
<path d="M4356 705 c-4 -14 -11 -25 -16 -25 -13 0 -60 -52 -60 -67 0 -7 5 -13
10 -13 6 0 10 -6 9 -12 -4 -30 2 -48 16 -48 16 0 38 34 28 43 -3 4 -1 13 6 20
6 8 9 22 5 31 -4 11 0 16 14 16 11 0 28 3 37 7 13 5 16 2 12 -13 -3 -10 -8
-35 -11 -54 -5 -32 -4 -36 16 -37 28 -3 39 14 31 47 l-6 25 22 -20 23 -20 -4
34 c-3 30 0 34 22 36 13 1 31 -4 38 -12 7 -7 10 -13 5 -13 -14 0 -43 -57 -37
-73 3 -8 1 -18 -5 -22 -16 -9 -14 -25 3 -25 7 0 16 9 19 20 3 11 12 20 20 20
18 0 30 30 22 53 -4 8 -2 18 4 22 6 3 11 1 11 -5 0 -6 10 -25 23 -42 13 -19
18 -32 11 -35 -25 -9 -47 -31 -40 -41 5 -8 12 -6 25 6 10 9 27 23 39 31 11 8
23 25 27 39 3 13 13 31 20 39 25 24 19 53 -10 53 -27 0 -33 -18 -13 -38 9 -9
9 -12 0 -12 -7 0 -12 5 -12 11 0 5 -4 7 -10 4 -5 -3 -10 -15 -10 -26 0 -10 -5
-19 -10 -19 -6 0 -10 6 -8 13 1 6 -3 27 -11 45 -11 27 -19 32 -47 32 -18 0
-36 5 -39 10 -5 8 -11 8 -20 0 -9 -8 -14 -6 -19 5 -3 8 -13 15 -21 15 -9 0
-14 -4 -11 -9 8 -12 -3 -41 -15 -41 -5 0 -9 7 -9 15 0 8 -4 15 -10 15 -5 0
-10 6 -10 14 0 13 -20 26 -40 26 -4 0 -11 -11 -14 -25z m-16 -65 c0 -5 -4 -10
-10 -10 -5 0 -10 5 -10 10 0 6 5 10 10 10 6 0 10 -4 10 -10z"/>
<path d="M6040 693 c0 -5 4 -15 10 -23 11 -18 25 -7 17 15 -6 15 -27 21 -27 8z"/>
<path d="M5628 653 c6 -2 18 -2 25 0 6 3 1 5 -13 5 -14 0 -19 -2 -12 -5z"/>
<path d="M4780 630 c-20 -16 -22 -20 -7 -20 9 0 26 9 37 20 26 26 3 26 -30 0z"/>
<path d="M5028 643 c6 -2 18 -2 25 0 6 3 1 5 -13 5 -14 0 -19 -2 -12 -5z"/>
<path d="M5410 630 c0 -11 0 -23 -1 -27 0 -5 16 -12 36 -17 31 -7 39 -5 51 13
16 22 44 29 44 11 0 -5 -6 -10 -13 -10 -7 0 -20 -9 -30 -20 -28 -33 5 -24 38
10 29 30 29 31 7 36 -12 4 -19 10 -16 15 3 5 -22 9 -55 9 -54 0 -61 -2 -61
-20z"/>
<path d="M5123 615 c-6 -14 -8 -25 -4 -25 12 0 31 23 31 37 0 21 -14 15 -27
-12z"/>
<path d="M5200 625 c0 -8 -4 -15 -8 -15 -5 0 -17 -6 -27 -14 -18 -13 -17 -13
8 -13 15 0 27 4 27 10 0 12 31 36 48 37 6 0 12 -11 12 -25 0 -19 -5 -25 -22
-25 -30 0 -52 -15 -44 -29 4 -6 20 -11 37 -11 22 0 29 5 29 20 0 11 5 20 10
20 6 0 10 -6 10 -12 0 -9 4 -8 10 2 9 13 12 13 21 -2 5 -10 17 -18 24 -18 8 0
15 -4 15 -10 0 -6 3 -9 8 -8 4 2 8 -1 10 -7 1 -5 -3 -10 -10 -10 -17 0 -20
-19 -5 -39 13 -17 14 -17 31 0 15 14 19 15 27 3 5 -8 9 -17 9 -21 0 -5 9 -8
20 -8 17 0 19 4 14 28 -10 42 -52 104 -92 135 -30 23 -45 27 -99 27 -49 0 -63
-3 -63 -15z m100 -23 c0 -13 -12 -22 -22 -16 -10 6 -1 24 13 24 5 0 9 -4 9 -8z
m78 -24 c19 -19 14 -29 -8 -16 -20 13 -27 28 -12 28 4 0 13 -5 20 -12z"/>
<path d="M4102 618 c5 -15 28 -23 28 -10 0 5 -7 13 -16 16 -10 4 -14 1 -12 -6z"/>
<path d="M6330 620 c-8 -5 -11 -12 -7 -16 4 -4 13 -2 19 4 15 15 7 24 -12 12z"/>
<path d="M4698 573 c7 -3 16 -2 19 1 4 3 -2 6 -13 5 -11 0 -14 -3 -6 -6z"/>
<path d="M5520 563 c0 -1 9 -13 20 -26 15 -18 28 -22 50 -19 31 4 39 22 18 39
-12 9 -88 14 -88 6z"/>
<path d="M5631 558 c1 -24 14 -43 32 -46 9 -2 17 2 17 8 0 5 -7 10 -15 10 -8
0 -15 6 -15 14 0 8 -4 18 -10 21 -5 3 -10 0 -9 -7z"/>
<path d="M4741 536 c-6 -7 -25 -16 -41 -20 -39 -7 -38 -22 0 -28 20 -3 30 0
30 8 0 7 7 20 16 29 9 9 14 18 12 21 -3 2 -10 -2 -17 -10z"/>
<path d="M4770 490 c0 -5 12 -10 28 -10 21 0 24 2 12 10 -20 13 -40 13 -40 0z"/>
<path d="M5523 470 c1 -11 5 -20 9 -20 4 0 12 9 18 20 9 17 8 20 -9 20 -14 0
-19 -6 -18 -20z"/>
<path d="M5246 457 c3 -10 9 -15 12 -12 3 3 0 11 -7 18 -10 9 -11 8 -5 -6z"/>
</g>
</svg>
